<?xml version="1.0" encoding="UTF-8" standalone="no"?>
<!-- Created with Inkscape (http://www.inkscape.org/) -->

<svg
   xmlns:dc="http://purl.org/dc/elements/1.1/"
   xmlns:cc="http://creativecommons.org/ns#"
   xmlns:rdf="http://www.w3.org/1999/02/22-rdf-syntax-ns#"
   xmlns:svg="http://www.w3.org/2000/svg"
   xmlns="http://www.w3.org/2000/svg"
   xmlns:sodipodi="http://sodipodi.sourceforge.net/DTD/sodipodi-0.dtd"
   xmlns:inkscape="http://www.inkscape.org/namespaces/inkscape"
   id="svg2"
   version="1.1"
   inkscape:version="0.48.5 r10040"
   width="364.19617"
   height="279.29861"
   xml:space="preserve"
   sodipodi:docname="1511XXXX601.PDF"><metadata
     id="metadata8"><rdf:RDF><cc:Work
         rdf:about=""><dc:format>image/svg+xml</dc:format><dc:type
           rdf:resource="http://purl.org/dc/dcmitype/StillImage" /><dc:title></dc:title></cc:Work></rdf:RDF></metadata><defs
     id="defs6" /><sodipodi:namedview
     pagecolor="#ffffff"
     bordercolor="#666666"
     borderopacity="1"
     objecttolerance="10"
     gridtolerance="10"
     guidetolerance="10"
     inkscape:pageopacity="0"
     inkscape:pageshadow="2"
     inkscape:window-width="1920"
     inkscape:window-height="1023"
     id="namedview4"
     showgrid="false"
     fit-margin-top="0"
     fit-margin-left="0"
     fit-margin-right="0"
     fit-margin-bottom="0"
     inkscape:zoom="1.7940585"
     inkscape:cx="141.60289"
     inkscape:cy="123.73702"
     inkscape:window-x="0"
     inkscape:window-y="0"
     inkscape:window-maximized="1"
     inkscape:current-layer="g10" /><g
     id="g10"
     inkscape:groupmode="layer"
     inkscape:label="1511XXXX601"
     transform="matrix(1.25,0,0,-1.25,-2249.6445,595.03906)"><path
       inkscape:connector-curvature="0"
       id="path342"
       style="fill:none;stroke:#000000;stroke-width:0.7087;stroke-linecap:round;stroke-linejoin:miter;stroke-miterlimit:10;stroke-opacity:1;stroke-dasharray:none"
       d="m 1900.4975,340.72825 -0.055,-0.0196 -0.052,-0.0259 m 0.7086,1.087 -0.026,-0.3052 -0.076,-0.265 -0.1245,-0.2156 -0.1683,-0.1589 -0.2063,-0.0968 m -0.902,4.4554 0.2611,-0.1771 0.2531,-0.2245 0.2375,-0.265 0.2146,-0.2974 0.1853,-0.321 0.1503,-0.3346 0.1108,-0.3382 0.068,-0.3314 0.023,-0.3146 m -11.6201,6.8555 0.041,0.2585 0.081,0.224 0.1183,0.1833 0.1526,0.1377 0.1826,0.0883 0.2077,0.0365 0.2271,-0.0163 0.2404,-0.0685 0.2471,-0.1191 m -10.6233,-1.4466 0.025,-0.272 0.074,-0.2874 0.1194,-0.2883 0.1587,-0.2749 0.1901,-0.2476 0.2118,-0.2078 0.223,-0.1578 m -2.5055,10.1837 0.261,-0.1771 0.2532,-0.2245 0.2375,-0.2649 0.2146,-0.2975 0.1853,-0.321 0.1503,-0.3346 0.1107,-0.3382 0.068,-0.3314 0.023,-0.3146 m -11.6255,6.712 0.023,0.2882 0.068,0.2532 0.1107,0.2102 0.1503,0.1611 0.1853,0.107 0.2147,0.0496 0.2374,-0.009 0.2531,-0.0678 0.2611,-0.1244 m -1.4992,-1.8081 0,0.0656 -10e-4,0.0645 m 11.6255,-26.0379 -0.02,-0.2735 -0.061,-0.2425 -0.1,-0.2048 -0.1355,-0.1616 -0.1678,-0.114 -0.1955,-0.0633 -0.2179,-0.0108 -0.2344,0.042 -0.2445,0.0935 m 28.4858,16.1817 0.261,-0.1771 0.2531,-0.2245 0.2375,-0.265 0.2147,-0.2974 0.1853,-0.321 0.1503,-0.3346 0.1107,-0.3382 0.068,-0.3314 0.023,-0.3146 m -3.0066,-34.7172 0.024,-0.421 0.07,-0.3871 0.1165,-0.3471 0.1605,-0.3015 0.2019,-0.2513 0.2402,-0.1971 0.2748,-0.1398 m 12.4416,-10.974 0.2481,-0.1143 0.2859,-0.0795 0.3095,-0.0408 0.3173,0 0.3095,0.0408 0.2859,0.0795 0.2481,0.1143 m 0,3.4717 -0.2481,-0.1143 -0.2859,-0.0795 -0.3095,-0.0408 -0.3173,0 -0.3095,0.0408 -0.2859,0.0795 -0.2481,0.1143 m 10.0219,5.7862 0.1979,-0.1433 0.1377,-0.1651 0.071,-0.1786 0,-0.1833 -0.071,-0.1786 -0.1377,-0.1651 -0.1979,-0.1433 m -22.0483,2.3145 -0.1979,0.1433 -0.1377,0.1651 -0.071,0.1786 0,0.1833 0.071,0.1786 0.1377,0.1651 0.1979,0.1433 m 3.5077,2.0251 0.1864,0.133 0.1346,0.1524 0.077,0.1652 0.016,0.1709 -0.046,0.1689 -0.1062,0.1597 -0.1613,0.1435 -0.2096,0.121 -0.2485,0.0931 -0.2766,0.0613 -0.2926,0.0268 -0.2959,-0.009 -0.2862,-0.0443 -0.2641,-0.0777 -0.2302,-0.1076 m 20.545,-10.1259 0.2253,0.1695 0.1416,0.1973 0.048,0.2118 m -22.8786,2.3145 0.048,-0.2118 0.1417,-0.1973 0.2252,-0.1695 m -10.5231,11.2831 0.026,-0.4383 0.077,-0.4011 0.1264,-0.3571 0.174,-0.3068 0.2185,-0.2515 0.2593,-0.1917 m -30.5063,56.7313 0.2279,0.0844 0.2599,0.0103 0.282,-0.064 0.2932,-0.136 m -9.0198,-34.7171 0.2482,-0.1143 0.2859,-0.0795 0.3095,-0.0408 0.3173,0 0.3095,0.0408 0.2859,0.0795 0.2481,0.1143 m -14.0307,8.1006 -0.1979,-0.1432 -0.1377,-0.1651 -0.071,-0.1787 0,-0.1832 0.071,-0.1787 0.1377,-0.1651 0.1979,-0.1432 m 10.022,5.7862 -0.2482,0.1142 -0.2859,0.0795 -0.3095,0.0408 -0.3174,0 -0.3094,-0.0408 -0.2859,-0.0795 -0.2482,-0.1142 m 17.5385,-18.8052 0.022,-0.4058 0.066,-0.3745 0.108,-0.3379 0.149,-0.2963 0.1878,-0.2503 0.2239,-0.2008 0.2568,-0.1482 0.2858,-0.0935 0.3107,-0.0375 0.3311,0.0191 0.3466,0.0754 0.3571,0.1306 0.3624,0.1839 m -11.1457,4.997 -0.2594,0.1917 -0.2184,0.2514 -0.174,0.3069 -0.1264,0.357 -0.077,0.4011 -0.026,0.4383 m -2.5055,-2.6038 -0.2481,-0.1142 -0.2859,-0.0795 -0.3095,-0.0408 -0.3173,0 -0.3095,0.0408 -0.2859,0.0795 -0.2482,0.1142 m -12.0263,6.9435 -0.2253,0.1694 -0.1416,0.1974 -0.048,0.2118 m 163.4586,20.202 0.2253,-0.1694 0.1416,-0.1974 0.048,-0.2118 m -4.424,-2.5541 -0.3668,0.0279 -0.3418,0.0817 -0.2936,0.13 m 0,-3.7031 0.2226,-0.1048 0.2546,-0.0767 m -114.8639,89.0782 0.3927,-0.2523 0.3878,-0.2999 0.378,-0.344 0.3634,-0.3836 0.3443,-0.4185 0.3208,-0.4481 0.2933,-0.472 0.2621,-0.49 0.2277,-0.5018 0.1902,-0.5074 0.1506,-0.5066 0.1089,-0.4993 0.066,-0.4858 0.022,-0.4663 m 57.1253,-32.9813 0.022,0.4408 0.066,0.4097 0.1089,0.3736 0.1505,0.3328 0.1903,0.2876 0.2276,0.239 0.2621,0.1874 0.2933,0.1333 0.3208,0.0776 0.3443,0.021 0.3634,-0.036 0.378,-0.0925 0.3878,-0.1478 0.3927,-0.2013 m -4.8824,-57.7587 6e-4,-0.3466 -0.044,-0.3171 -0.088,-0.2803 -0.1298,-0.2373 -0.1687,-0.189 -0.2038,-0.1365 -0.2343,-0.0808 -0.2597,-0.0235 -0.2792,0.0345 -0.2923,0.0917 -0.2991,0.1467 m -3.5088,59.3091 0.2984,-0.198 0.2917,-0.2452 0.2785,-0.2868 0.2592,-0.3222 0.2341,-0.3503 0.2037,-0.3706 0.1689,-0.3827 0.1302,-0.3862 0.089,-0.3811 0.045,-0.3676 m -7.1859,3.0537 0.046,0.3842 0.088,0.3507 0.1289,0.3121 0.1678,0.2691 0.2045,0.2224 0.2381,0.1724 0.2683,0.12 0.2947,0.0658 0.3171,0.0108 0.3347,-0.0444 0.3478,-0.099 0.3557,-0.1522 m -10.7665,12.0105 0.3625,-0.2346 0.3571,-0.2817 0.3466,-0.3249 0.3311,-0.3632 0.3107,-0.3963 0.2858,-0.4235 0.2567,-0.4447 0.2239,-0.4593 0.1879,-0.4672 0.149,-0.4683 0.108,-0.4626 0.065,-0.4502 0.022,-0.4311 m -23.0506,13.3082 0.022,0.4058 0.065,0.3746 0.1081,0.3379 0.149,0.2963 0.1878,0.2503 0.2239,0.2008 0.2567,0.1482 0.2858,0.0935 0.3107,0.0375 0.3311,-0.0191 0.3466,-0.0754 0.3572,-0.1306 0.3624,-0.1839 m -15.1606,0.8298 0.045,0.3155 0.089,0.2787 0.1303,0.2359 0.1688,0.1877 0.2037,0.1353 0.2341,0.08 0.2592,0.0229 0.2785,-0.0348 0.2918,-0.0916 0.2983,-0.1465 m 96.2802,-77.8642 0.2252,-0.1695 0.1416,-0.1974 0.048,-0.2117 m -4.4239,-2.5542 -0.3668,0.0279 -0.3418,0.0817 -0.2936,0.1301 m 0,-3.7032 0.2226,-0.1047 0.2545,-0.0767 m -112.1238,-20.8789 -0.291,-0.4396 -0.2356,-0.4505 -0.1789,-0.4592 -0.1213,-0.4653 -0.063,-0.4692 0,-0.4706 0.054,-0.4696 0.1123,-0.4661 0.17,-0.4602 0.2268,-0.452 0.2826,-0.4414 0.3367,-0.4286 0.3891,-0.4135 0.4396,-0.3963 0.4878,-0.377 0.5334,-0.3558 0.5763,-0.3328 0.6163,-0.308 0.653,-0.2817 0.6863,-0.2538 0.7162,-0.2248 0.7423,-0.1944 0.7645,-0.1632 0.7829,-0.131 0.7971,-0.0982 0.8074,-0.0649 0.8133,-0.0312 0.815,0.003 0.8127,0.0364 0.806,0.07 0.7953,0.1032 0.7803,0.136 0.7614,0.1679 m 89.0656,28.8909 0.2252,-0.1695 0.1416,-0.1973 0.048,-0.2118 m -4.4239,-2.5542 -0.3668,0.0279 -0.3419,0.0818 -0.2935,0.13 m 0,-3.7032 0.2226,-0.1047 0.2545,-0.0767 m -20.922,-7.9192 0.2253,-0.1695 0.1416,-0.1974 0.048,-0.2118 m -4.424,-2.5541 -0.3668,0.0279 -0.3418,0.0817 -0.2936,0.1301 m 0,-3.7032 0.2226,-0.1047 0.2546,-0.0768 m -81.5408,89.8015 -0.1979,-0.1433 -0.1377,-0.1651 -0.071,-0.1786 0,-0.1833 0.071,-0.1786 0.1377,-0.1651 0.1979,-0.1433 m 103.928,60.0029 -0.2481,0.1142 -0.286,0.0795 -0.3094,0.0408 -0.3174,0 -0.3094,-0.0408 -0.286,-0.0795 -0.2481,-0.1142 m -59.8312,-101.6635 -0.2482,-0.1142 -0.2859,-0.0796 -0.3095,-0.0407 -0.3173,0 -0.3095,0.0407 -0.2859,0.0796 -0.2481,0.1142 m -45.6001,-0.0579 -0.2048,0.0939 -0.1961,0.041 -0.1793,-0.0135 -0.1547,-0.0675 -0.1237,-0.1186 -0.088,-0.1647 -0.047,-0.2039 m 42.0839,-24.4473 -0.025,0.272 -0.074,0.2874 -0.1194,0.2884 -0.1587,0.2748 -0.19,0.2476 -0.2118,0.2079 -0.223,0.1578 m -13.1789,-6.4516 0.261,-0.1771 0.2531,-0.2245 0.2375,-0.265 0.2147,-0.2975 0.1853,-0.3209 0.1502,-0.3346 0.1108,-0.3382 0.068,-0.3314 0.023,-0.3146 m 2.0044,0 -0.022,0.39 -0.064,0.408 -0.1054,0.4192 -0.1449,0.4231 -0.1821,0.4198 -0.2161,0.4093 -0.2464,0.3918 -0.2725,0.3675 -0.2939,0.3371 -0.3104,0.3008 -0.3214,0.2594 -0.327,0.2136 m -8.168,1.8227 0.025,0.1646 0.071,0.1202 0.1108,0.064 0.1397,0.002 0.1548,-0.0611 m 8.168,-23.8102 -0.023,-0.2883 -0.068,-0.2531 -0.1108,-0.2103 -0.1502,-0.1611 -0.1853,-0.1069 -0.2147,-0.0497 -0.2375,0.009 -0.2531,0.0678 -0.261,0.1243 m -6.6647,3.8479 -0.1548,0.1177 -0.1397,0.1628 -0.1108,0.192 -0.071,0.2024 -0.025,0.193 m -11.7257,6.7698 -0.024,-0.1646 -0.071,-0.1202 -0.1109,-0.064 -0.1396,-0.001 -0.1549,0.061 m -6.6646,3.8479 -0.261,0.177 -0.2532,0.2245 -0.2374,0.265 -0.2147,0.2975 -0.1853,0.3209 -0.1503,0.3346 -0.1107,0.3382 -0.068,0.3314 -0.023,0.3146 m 0,17.3586 0.023,0.2883 0.068,0.2531 0.1107,0.2103 0.1503,0.1611 0.1853,0.1069 0.2147,0.0497 0.2374,-0.009 0.2532,-0.0678 0.261,-0.1243 m 6.6646,-3.8479 0.1549,-0.1177 0.1396,-0.1628 0.1109,-0.192 0.071,-0.2024 0.024,-0.193 m 13.229,-4.7447 -0.261,0.1244 -0.2531,0.0678 -0.2375,0.009 -0.2147,-0.0496 -0.1853,-0.107 -0.1502,-0.1611 -0.1108,-0.2102 -0.068,-0.2532 -0.023,-0.2882 m 8.168,-26.1247 0.327,-0.164 0.3214,-0.1118 0.3104,-0.0575 0.2939,-0.002 0.2725,0.053 0.2464,0.1072 0.2161,0.1598 0.1821,0.2095 0.1449,0.2557 0.1054,0.2976 0.064,0.3342 0.022,0.3653 m -20.3948,30.2907 -0.023,0.3146 -0.068,0.3315 -0.1108,0.3381 -0.1503,0.3346 -0.1853,0.321 -0.2146,0.2975 -0.2375,0.265 -0.2531,0.2244 -0.2611,0.1771 m -6.6646,3.8478 -0.327,0.1641 -0.3215,0.1117 -0.3103,0.0576 -0.294,0.002 -0.2725,-0.0529 -0.2464,-0.1073 -0.216,-0.1597 -0.1821,-0.2096 -0.145,-0.2557 -0.1053,-0.2975 -0.064,-0.3343 -0.021,-0.3652 m 9.1701,-25.5461 0.2611,-0.1243 0.2531,-0.0678 0.2375,-0.009 0.2146,0.0496 0.1853,0.107 0.1503,0.1611 0.1108,0.2103 0.068,0.2531 0.023,0.2882 m 139.5061,99.0019 0.1978,-0.1433 0.1377,-0.1651 0.071,-0.1786 0,-0.1833 -0.071,-0.1786 -0.1377,-0.1651 -0.1978,-0.1433 m 6.5143,-17.4164 -0.025,0.272 -0.074,0.2874 -0.1194,0.2883 -0.1587,0.2749 -0.19,0.2476 -0.2118,0.2079 -0.223,0.1577 m -105.9155,-18.4968 -0.1493,-0.5978 m 15.4602,20.4679 0.2278,0.5535 m -2.8108,1.6218 -0.1493,-0.5978 m -22.7236,-16.2744 0.2278,0.5534 m -2.8107,1.6219 -0.1493,-0.5978 m 6.0284,0.7468 0.1493,-0.3351 m 19.4274,0.1861 -0.1493,-0.5978 m -9.9956,5.771 0.2277,0.5534 m -2.8107,1.6218 -0.1493,-0.5978 m 6.0284,0.7469 0.1493,-0.3351 m -3.2186,-14.5781 0.017,0.2889 0.047,0.2808 0.07,0.2656 0.089,0.243 0.1013,0.2133 0.1085,0.1762 m 0.3952,0.2281 0.2689,0.031 0.2603,0.007 0.2434,-0.0399 0.2176,-0.1009 0.2011,-0.1467 0.1929,-0.1696 m 3e-4,0 0.3103,-0.3606 0.2845,-0.3531 0.2589,-0.3456 m -3.0652,-1.7725 0.035,0.5173 9e-4,0.5185 -0.034,0.5194 m -0.5718,2.0452 -0.2689,-0.112 -0.2603,-0.1219 -0.2434,-0.1416 -0.2176,-0.1651 -0.2011,-0.1841 -0.1929,-0.1938 m -3e-4,8e-4 -0.3103,-0.3195 -0.2845,-0.3544 -0.2589,-0.3893 m 3.0111,2.4654 -0.07,0.007 -0.091,-0.0397 -0.1046,-0.0875 -0.1125,-0.1364 m -2.7855,-2.8047 -0.108,-0.495 m 25.9822,-77.6265 -0.095,-0.0548 -0.1511,-0.0872 -0.1456,-0.0841 -0.1433,-0.0827 m -3.0588,11.1951 -0.3849,0.2504 -0.3821,0.3025 -0.3712,0.3472 -0.3524,0.3848 m -3.5203,-4.178 -0.385,0.2505 -0.3821,0.3024 -0.3711,0.3472 -0.3525,0.3848 m 1.4907,-4.9881 -0.5217,0.3259 -0.5118,0.3673 -0.5018,0.4082 -0.4919,0.4488 -0.4821,0.4895 -0.472,0.5302 m 6.5016,5.3113 -0.472,0.5302 -0.482,0.4895 -0.4919,0.4488 -0.5019,0.4082 -0.5118,0.3673 -0.5216,0.3259 m -2.0298,-5.463 -0.472,0.5302 -0.482,0.4895 -0.4919,0.4488 -0.5019,0.4082 -0.5117,0.3673 -0.5217,0.3259 m 1.4906,-4.9881 -0.3524,0.3848 -0.3712,0.3472 -0.382,0.3024 -0.385,0.2505 m 38.5324,6.5521 -0.095,-0.0547 -0.1512,-0.0873 -0.1455,-0.084 -0.1434,-0.0828 m -35.1075,84.755 0.5895,-0.1371 0.5613,-0.1221 0.5314,-0.1053 m -1.6822,0.3645 0.035,0.5173 8e-4,0.5185 -0.034,0.5194 m 0,-4e-4 0.063,0.5662 m -1.4425,1.0777 -0.2982,-0.2448 -0.275,-0.272 m -3e-4,8e-4 -0.3102,-0.3195 -0.2846,-0.3544 -0.2589,-0.3893 m 2.2308,-3.7639 0.034,0.3859 0.063,0.3924 0.1113,0.4032 0.1404,0.4097 m -2.7315,1.577 -0.096,-0.4353 -0.073,-0.4254 -0.035,-0.4088 -0.011,-0.399 m -20.0699,-11.2204 0.3102,-0.3606 0.2846,-0.3531 0.2589,-0.3456 m -1.383,-2.137 0.3928,0.546 0.372,0.5564 0.3197,0.5136 0.3015,0.5198 m -3.0682,-1.7714 0.5895,-0.137 0.5613,-0.1222 0.5314,-0.1052 m -1.6822,0.3644 0.035,0.5174 8e-4,0.5184 -0.034,0.5195 m 0,-5e-4 0.017,0.2888 0.047,0.2808 0.07,0.2656 0.089,0.243 0.1014,0.2133 0.1085,0.1761 m 0.3952,0.2282 0.2689,0.031 0.2603,0.007 0.2434,-0.0399 0.2175,-0.1009 0.2012,-0.1467 0.1929,-0.1696 m -2.7806,0.7686 -0.2688,-0.1121 -0.2603,-0.1218 -0.2434,-0.1416 -0.2176,-0.1651 -0.2011,-0.1842 -0.1929,-0.1937 m -3e-4,8e-4 -0.3103,-0.3195 -0.2846,-0.3544 -0.2589,-0.3893 m 2.4197,-2.6438 0.1598,0.4711 m 3.4454,1.9891 0.096,-0.2732 0.073,-0.2968 0.034,-0.3361 0.011,-0.3598 m -3.2285,3.9149 -0.07,0.007 -0.09,-0.0397 -0.1046,-0.0875 -0.1126,-0.1364 m -2.7854,-2.8047 -0.1038,-0.4735 m 102.3455,-48.2542 -0.095,-0.0547 -0.1511,-0.0873 -0.1456,-0.084 -0.1433,-0.0828 m -3.0588,11.1951 -0.3849,0.2505 -0.3821,0.3024 -0.3712,0.3472 -0.3524,0.3849 m 0,0 -0.5331,0.595 -0.5458,0.5433 m -6.5647,-20.658 -0.095,-0.0548 -0.1511,-0.0873 -0.1456,-0.084 -0.1433,-0.0828 m -12.193,-7.0396 -0.095,-0.0548 -0.1511,-0.0872 -0.1456,-0.0841 -0.1434,-0.0827 m -47.8364,64.2642 0.017,0.2888 0.047,0.2809 0.07,0.2656 0.089,0.243 0.1013,0.2132 0.1086,0.1762 m 0.3952,0.2282 0.2688,0.031 0.2603,0.007 0.2434,-0.0399 0.2235,-0.1046 0.2063,-0.1523 m -2.0293,-2.9922 0.035,0.5174 8e-4,0.5184 -0.034,0.5195 m -0.5718,2.0452 -0.2689,-0.1121 -0.2603,-0.1218 -0.2434,-0.1416 -0.2175,-0.1651 -0.2012,-0.1842 -0.1929,-0.1937 m -3e-4,8e-4 -0.3102,-0.3195 -0.2846,-0.3544 -0.2589,-0.3893 m 3.0111,2.4654 -0.07,0.007 -0.091,-0.0397 -0.1046,-0.0875 -0.1125,-0.1364 m -2.7855,-2.8047 -0.096,-0.4353 -0.073,-0.4254 -0.034,-0.4089 -0.011,-0.3989 m 26.089,-76.453 -0.095,-0.0548 -0.1512,-0.0873 -0.1456,-0.084 -0.1433,-0.0828 m -4.1615,12.0596 -0.3879,0.4205 m -3.5203,-4.1781 -0.385,0.2505 -0.382,0.3024 -0.3712,0.3472 -0.3524,0.3849 m 1.4906,-4.9881 -0.5217,0.3259 -0.5117,0.3673 -0.5019,0.4082 -0.4919,0.4488 -0.482,0.4894 -0.4721,0.5303 m 6.5016,5.3113 -0.472,0.5302 -0.482,0.4895 -0.4919,0.4488 -0.5019,0.4082 -0.5117,0.3672 -0.5217,0.326 m -2.0297,-5.463 -0.4721,0.5302 -0.482,0.4895 -0.4919,0.4488 -0.5019,0.4082 -0.5117,0.3672 -0.5217,0.3259 m 1.4906,-4.988 -0.3524,0.3848 -0.3712,0.3472 -0.382,0.3024 -0.385,0.2505 m -20.3545,79.1332 0.3103,-0.3607 0.2845,-0.353 0.2589,-0.3456 m -1.383,-2.1371 0.3928,0.5461 0.372,0.5564 0.3197,0.5136 0.3015,0.5198 m -3.0682,-1.7714 0.5896,-0.137 0.5613,-0.1222 0.5313,-0.1053 m -1.6822,0.3645 0.035,0.5174 9e-4,0.5184 -0.034,0.5194 m 0,-4e-4 0.017,0.2888 0.047,0.2808 0.07,0.2656 0.089,0.243 0.1013,0.2132 0.1085,0.1762 m 0.3952,0.2282 0.2689,0.031 0.2603,0.007 0.2434,-0.04 0.2176,-0.1008 0.2011,-0.1468 0.1929,-0.1696 m -2.7805,0.7686 -0.2689,-0.112 -0.2603,-0.1219 -0.2434,-0.1416 -0.2176,-0.165 -0.2011,-0.1842 -0.1929,-0.1937 m -3e-4,8e-4 -0.3103,-0.3195 -0.2845,-0.3545 -0.2589,-0.3893 m 2.2308,-3.7639 0.034,0.3859 0.063,0.3924 0.1113,0.4033 0.1404,0.4097 m 3.4454,1.9891 0.096,-0.2732 0.073,-0.2968 0.034,-0.3362 0.011,-0.3597 m -3.2286,3.9148 -0.07,0.007 -0.091,-0.0396 -0.1046,-0.0875 -0.1125,-0.1364 m -2.7855,-2.8048 -0.096,-0.4353 -0.073,-0.4254 -0.034,-0.4088 -0.011,-0.3989 m -7.3665,-53.5336 -0.022,-0.2361 -0.061,-0.2482 -0.096,-0.2513 -0.1256,-0.246 -0.1502,-0.2317 -0.1697,-0.2088 -0.1843,-0.1771 -0.1937,-0.1367 m -11.4324,6.6005 0.1937,0.1367 0.1843,0.1772 0.1697,0.2087 0.1502,0.2317 0.1256,0.246 0.096,0.2513 0.061,0.2482 0.021,0.2361 m 79.2275,104.0186 0,-14.9976 m -95.789,-129.967 0.044,-0.4768 m -8.3492,56.1069 0,-0.0708 -0.01,-0.0817 -0.025,-0.1649 -0.044,-0.1868 -0.065,-0.2055 -0.083,-0.2097 -0.1051,-0.2176 -0.1213,-0.2123 -0.1364,-0.2038 -0.1468,-0.1877 -0.1506,-0.1647 -0.1483,-0.1397 -0.1343,-0.1075 -0.1265,-0.0809 m 146.1693,37.7326 -0.011,0.0327 -0.01,0.0356 -0.01,0.0542 10e-4,0.0797 5e-4,0.006 6e-4,0.006" /><path
       inkscape:connector-curvature="0"
       id="path346"
       style="fill:none;stroke:#000000;stroke-width:0.7087;stroke-linecap:round;stroke-linejoin:miter;stroke-miterlimit:10;stroke-opacity:1;stroke-dasharray:none"
       d="m 1919.2427,399.22905 1.0011,-0.578 m -0.4312,-1.468 -1.9542,1.1282 m -1.0062,-1.6587 2.3709,-1.3688 m 1.4159,3.5954 -1.0011,0.578 m 19.495,-70.0399 -5.0109,-2.8931 m 8.6046,-4.629 0,-3.3642 m -1.0022,2.1866 0,-0.8685 m -7.6024,5.2578 0,-0.8686 m 3.5203,6.4639 -5.011,-2.8931 m 0,0 -1.4906,-2.4182 m 3.5204,7.8812 -5.011,-2.8931 m 0,-1.4173 0,-0.8686 m 92.7656,87.9435 3.0065,1.7359 m 1.5033,-2.6038 -3.0065,-1.7358 m 0,-32.9814 0,-1.1573 m 9.5208,-14.1761 0,3.4717 m 2.0044,0 0,-3.4717 m 8.0176,4.629 0,3.4717 m -75.2793,-36.6266 0,-3.3643 m -1.0022,2.1866 0,-0.8685 m -34.6398,84.6825 -1.9542,1.1282 m -1.0062,-1.6587 2.7319,-1.5772 m -0.3488,-1.5911 -2.5977,1.4997 m -22.8508,-10.4518 1.0012,-0.5781 m -0.4313,-1.468 -1.9541,1.1283 m -1.0062,-1.6587 2.7319,-1.5773 m 1.0549,3.8039 -1.0012,0.578 m -8.742,-89.9588 6.5647,-3.7902 m -39.6372,22.8846 6.5647,-3.7901 m 34.3001,13.1781 3.0066,1.7359 m -4.5099,0.8679 3.0066,1.7359 m 1.5033,-35.5851 0,-2.3145 m -40.5891,60.4657 -3.0066,-1.7358 m 35.4278,-29.5964 -0.3007,-0.1736 m 18.9917,-37.9285 0,-3.4717 m 2.0043,0 0,3.4717 m 8.0176,4.6289 0,-3.4717 m -22.0483,2.3145 0,3.4717 m -7.8673,11.8328 1.5033,0.8679 m -32.371,38.8254 1.5033,0.8679 m 0.7015,-0.405 -2.2048,-1.273 m -9.3706,-26.414 0,3.4718 m 2.0044,-3.4718 0,3.4718 m -14.0307,6.9434 0,-3.4717 m 155.4409,25.1699 -2.3397,-1.3508 m 5.9334,-6.1712 0,-3.3643 m -1.0022,2.1866 0,-0.8685 m -4.0821,10.8532 -0.9819,-0.5669 m -45.1816,40.1616 -2.2803,-1.3165 m -40.0881,23.7233 1.7791,1.0271 m 14.8369,-27.3083 -6.1216,-3.5342 m 26.2206,-50.9796 0.7766,0.4484 m -49.028,83.2689 -0.6174,-0.3565 m 93.0421,-80.7228 0,-3.3642 m -1.0022,2.1866 0,-0.8686 m -11.7257,-5.3023 0,-3.3642 m -1.0022,2.1866 0,-0.8685 m -47.9376,64.6831 1.0012,-0.5781 m -0.4313,-1.468 -1.9542,1.1283 m -1.0062,-1.6587 2.3709,-1.3688 m -1.5523,-0.8963 -1.0332,0.5965 m 4.0015,3.8952 -1.0012,0.578 m 19.1418,-70.2439 -4.6577,-2.6892 m 8.6046,-4.6289 0,-3.3642 m -1.0022,2.1865 0,-0.8685 m -7.6024,5.2578 0,-0.8685 m 3.5203,6.4639 -5.0109,-2.8931 m 0,0 -1.4907,-2.4182 m 3.5204,7.8812 -5.011,-2.8932 m 0,-1.4173 0,-0.8685 m -23.1353,78.4844 1.0011,-0.578 m -0.4312,-1.468 -1.9542,1.1282 m -1.0062,-1.6586 2.7319,-1.5773 m -0.3488,-1.5911 -2.5977,1.4998 m 4.0014,3.8952 -1.0011,0.578 m 97.7668,-0.1719 0,16.0282 m 5.2868,-16.7077 -2.055,-1.1864 m -108.3871,-62.5785 -2.055,-1.1864 m 5.2869,22.8124 0,-16.0282 m -2.0044,-1.4174 0,17.4456 m -2.9781,-15.7262 2.9781,-1.7194 m -40.088,23.1448 23.2225,-13.4075 m -23.2225,49.3688 0,-35.9613 m 35.8033,-26.7758 3.2825,1.8951 m -40.088,23.1448 -3.2824,-1.8951 m 26.5027,-11.5111 -23.2203,13.4062 m 40.088,-23.1448 -2.9762,1.7183 m -13.2093,-13.3774 2.0044,0 m -3.5077,2.6038 1.0022,1.7358 m 2.3551,1.3598 -2.3551,-1.3598 m 2.5055,-4.3396 2.8061,1.6201 m -12.9785,4.8315 1.0022,1.7358 m 7.1658,-25.546 2.0044,0 m 2.5267,1.4588 -2.5267,-1.4588 m -9.1702,25.546 2.3552,1.3598 m -15.5842,3.3849 2.0044,0 m -1.5033,2.6038 -1.0022,-1.7359 m 3.3574,3.0956 -2.3552,-1.3597 m 1.5033,-2.6038 2.4523,1.4158 m -11.6224,3.3 1.0022,1.7358 m 0,0 2.3552,1.3598 m 3.8083,-27.4845 2.0044,0 m 2.4554,1.4177 -2.4554,-1.4177 m 31.3579,26.4531 -2.4788,-1.4311 m 0,1.1572 2.4744,1.4286 m 109.1547,51.9524 -0.5871,0.339 m 3.8696,1.5561 -3.2825,-1.8951 m 1.0022,-1.7358 -0.2852,-0.1412 -0.2795,-0.0911 -0.2679,-0.0393 -0.251,0.0133 -0.229,0.0658 -0.2022,0.1167 -0.1714,0.1654 -0.137,0.2107 -0.1,0.2517 -0.061,0.2876 -0.02,0.3176 m -101.9236,-58.8456 -0.02,-0.3412 -0.061,-0.3577 -0.1,-0.3671 -0.137,-0.369 -0.1714,-0.3633 -0.2022,-0.3503 -0.229,-0.33 -0.251,-0.3032 -0.2679,-0.2701 -0.2795,-0.2316 -0.2852,-0.1882 m 2.0044,3.4717 -0.2482,-0.1142 -0.2859,-0.0795 -0.3095,-0.0408 -0.3173,0 -0.3095,0.0408 -0.2859,0.0795 -0.2481,0.1142 m 0,-3.4717 -0.025,0.272 -0.074,0.2874 -0.1194,0.2883 -0.1587,0.2749 -0.19,0.2476 -0.2118,0.2079 -0.223,0.1577 m 0,0 0.223,0.1578 0.2118,0.2079 0.19,0.2476 0.1587,0.2748 0.1194,0.2884 0.074,0.2874 0.025,0.272 m -40.088,23.1448 -0.2252,0.1695 -0.1416,0.1973 -0.048,0.2118 m 0.4151,-0.5786 -0.025,-0.272 -0.074,-0.2874 -0.1194,-0.2884 -0.1587,-0.2748 -0.1901,-0.2476 -0.2118,-0.2079 -0.223,-0.1578 m 0,0 -0.2594,0.1104 -0.2417,0.0239 -0.2075,-0.0641 m 146.1419,37.9451 -0.048,-0.2117 -0.1416,-0.1974 -0.2252,-0.1695 m 0.4134,0.4595 0.1814,-0.0162 0.1991,0.0404 0.2082,0.0949 m 0,0 0.2231,-0.1577 0.2118,-0.2079 0.19,-0.2476 0.1587,-0.2749 0.1194,-0.2883 0.074,-0.2874 0.025,-0.272"
       sodipodi:nodetypes="cccccccccccccccccccccccccccccccccccccccccccccccccccccccccccccccccccccccccccccccccccccccccccccccccccccccccccccccccccccccccccccccccccccccccccccccccccccccccccccccccccccccccccccccccccccccccccccccccccccccccccccccccccccccccccccccccccccccccccccccccccccccccccccccccccccccccccccccccccccccccccccccccccccc" /><path
       inkscape:connector-curvature="0"
       id="path738"
       style="fill:none;stroke:#000000;stroke-width:0.7087;stroke-linecap:round;stroke-linejoin:miter;stroke-miterlimit:10;stroke-opacity:1;stroke-dasharray:none"
       d="m 1920.2431,398.65005 0.3952,0.2281 m -1.0011,0.578 -0.3952,-0.2281 m 2.4221,-0.4628 -1.6476,0.9513 m 27.1334,-75.2682 0,-0.8183 m 0,0 -3.0067,-1.7359 m 0,0 -1.4173,0 m -1.0022,0.2397 -7.6024,4.3893 m 12.6134,-1.4962 -7.6025,4.3893 m 5.011,-7.5221 0,-2.5459 m 0,0 -1.4173,-0.8183 m 4.424,2.5542 0,2.5459 m -3.0067,-4.2818 3.0067,1.7359 m -5.4262,-2.6535 -7.6024,4.3893 m -4.4719,7.558 -1.2407,0.7163 m 1.2407,-4.4195 -4.4476,2.5678 m 9.4586,4.0285 -1.2407,0.7163 m 84.399,84.7019 4.5963,-2.6537 m 1.5033,-2.6037 0,-32.9814 m -5.011,2.8931 5.011,-2.8931 m 3.0065,1.7359 0,32.9813 m -1.5033,2.6038 -7.6027,4.3895 m 11.6115,-40.8425 -3.5077,-2.0252 m 5.5121,2.0252 12.0264,-6.9435 m 0,-1.1572 -8.0176,-4.629 m -2.0044,0 -20.0439,11.5724 m -3.0066,-1.7358 23.0505,-13.3083 m 2.0044,0 8.0176,4.629 m 0.4151,0.5786 0,3.4717 m -71.2705,-34.6511 0,-0.8183 m 0,0 -3.0066,-1.7358 m 0,0 -1.4173,0 m -1.0022,0.2396 -1.2993,0.7502 m 6.3102,2.1429 -1.2993,0.7502 m -1.2921,-3.8829 0,-2.546 m 0,0 -1.4173,-0.8183 m 4.4239,2.5542 0,2.5459 m -3.0066,-4.2818 3.0066,1.7359 m -5.4261,-2.6534 -4.5063,2.6016 m -30.7108,70.8442 0,8.9552 m -2.5977,1.4997 0,-14.6971 m -21.8496,3.6672 0.3952,0.2282 m 2.605,-3.0805 0,-3.3968 m -3.6062,7.0553 -0.3952,-0.2281 m 2.4222,-0.4628 -1.6476,0.9512 m -0.4772,-43.2498 -0.034,0.0199 m 0.034,-3.4917 0,3.4718 m 2.4248,1.4 -2.4248,-1.4 m -0.8519,-51.4682 0,32.9813 m -9.0198,-27.7737 -24.0528,13.8868 m -9.0198,5.2076 0,32.9813 m 1.5033,0.868 39.0858,-22.5662 m -4.8607,-26.3561 -0.8164,0.4713 m 2.3197,1.2067 0,-0.8101 m 0,20.136 0,-0.8101 m -10.1222,8.39 8.6189,-4.9761 m -18.24,1.7937 6.2637,-3.6164 m -7.2659,11.1963 0,-5.8441 m -10.1222,13.424 8.6189,-4.9761 m -10.1222,3.2981 0,0.8101 m 11.6255,-23.0869 0,-3.7611 m 28.6128,12.6429 0,-32.9813 m -1.5033,35.5851 -39.0858,22.5661 m 61.1341,-63.6481 -20.0439,11.5723 m 12.0263,-17.3585 8.0176,4.6289 m -22.0483,2.3145 12.0264,-6.9434 m -12.0264,8.1007 3.5077,2.0251 m 18.5406,-8.9686 -8.0176,-4.6289 m -2.0043,0 -12.0264,6.9434 m 22.4635,-1.7359 0,3.4718 m -22.8786,2.3144 0,-3.4717 m -9.2274,8.758 9.0198,-5.2075 m -39.5261,61.9388 -3.0066,-1.7358 m -2.9458,-33.0866 2.5055,1.4465 m -4.5099,-1.4465 -12.0263,6.9434 m 0,1.1572 8.0175,4.629 m 2.0045,0 6.5143,-3.7611 m 0.8806,-11.7829 9.0197,-5.2076 m -26.4366,11.4937 12.0263,-6.9435 m 4.6818,1.5458 -2.6774,-1.5458 m -14.4459,10.9938 0,-3.4717 m 163.8738,19.6234 0,-0.8183 m 0,0 -3.0067,-1.7358 m 0,0 -1.4173,0 m -1.0022,0.2396 -4.7256,2.7284 m 9.7366,0.1647 -7.6025,4.3893 m 5.011,-7.522 0,-2.546 m 0,0 -1.4173,-0.8183 m 4.424,2.5542 0,2.5459 m -3.0067,-4.2818 3.0067,1.7359 m -5.4262,-2.6534 -4.5062,2.6017 m -45.7398,55.0495 34.6761,20.0202 m -98.8168,17.0115 64.1407,-37.0317 m -19.4426,62.8381 -44.6981,-25.8064 m 112.8476,-13.5397 -68.1495,39.3461 m 58.1275,-45.1323 10.022,5.7862 m -14.0308,-3.4718 4.0088,-2.3144 m -94.4997,-0.1694 0.065,0.9413 m -4.8834,4.9564 -0.6266,-9.0415 m 0.6266,9.0415 0,1.7358 m -3.5077,11.8618 0,-5.7862 m 64.1407,-37.0317 0,5.7862 m -3.5077,-9.5472 0,1.7358 m 4.5748,-73.0299 -4.5748,71.2941 m 2.03,-70.0509 2.5448,-1.2432 m -11.9621,15.9682 9.4173,-14.725 m -9.5711,17.1214 0.1538,-2.3964 m 4.0142,-0.01 -4.168,2.4064 m 2.6577,53.612 3.5087,-54.6802 m -5.5072,57.9709 -2.188,1.2633 m -7.9674,6.9145 0,-11.2836 m -20.044,26.3277 17.0373,-9.8365 m -20.0439,-21.4666 0,29.5672 m -4.9609,-16.8089 0.8107,-4.9105 m -3.8173,24.005 -2.188,1.2632 m 88.4272,0.5594 0,-5.7862 m 0,0 -34.6761,-20.0202 m 1.0671,-75.0551 44.6981,25.8064 m -49.2729,45.4877 39.687,22.9133 m 5.1901,0.1026 4.3958,-68.5036 m 2.9417,78.5269 0,-5.7862 m -10.022,-5.7862 10.022,5.7862 m -10.022,0 0,-5.7862 m -4.0088,2.3144 4.0088,-2.3144 m -70.5587,-25.5937 6.1216,3.5343 m 68.6964,-48.8422 0,-0.8183 m 0,0 -3.0066,-1.7359 m 0,0 -1.4173,0 m -1.0022,0.2397 -1.2993,0.7501 m 6.3103,2.143 -1.2993,0.7501 m -1.2922,-3.8829 0,-2.5459 m 0,0 -1.4173,-0.8183 m 4.4239,2.5541 0,2.546 m -3.0066,-4.2818 3.0066,1.7358 m -5.4261,-2.6534 -4.5062,2.6017 m -97.8541,-78.9588 0,-18.5158 m -90.1979,52.0758 90.1979,-52.0758 m -90.1979,52.0758 0,18.5158 m 90.1979,-52.0758 -90.1979,52.0758 m 290.6376,63.6482 0,-18.5159 m -200.4397,-115.7239 200.4397,115.7239 m 0,18.5159 -200.4397,-115.724 m 127.5443,157.8101 72.8954,-42.0861 m -290.6376,-63.6482 63.7931,36.8309 m 170.571,2.4284 -25.0549,14.4655 m 37.0813,-7.522 -12.0264,-6.9435 m -165.0621,-36.2794 -25.0549,14.4655 m 29.9074,-11.664 -4.8525,-2.8015 m 51.1122,-29.5096 -25.055,14.4655 m 37.0813,-7.5221 -12.0263,-6.9434 m 93.8058,59.945 -8.0177,-4.629 m 0,0 -7.4268,4.2879 m 2.7165,-7.0074 -8.0176,-4.6289 m 0,0 -7.4268,4.2878 m 2.7165,-7.0074 -8.0176,-4.6289 m 0,0 -7.4269,4.2879 m 2.7166,-7.0074 -8.0176,-4.629 m 0,0 -7.4269,4.2879 m 2.7165,-7.0074 -8.0175,-4.629 m 0,0 -11.0242,6.3649 m 6.3138,-9.0844 -8.0176,-4.6289 m 0,0 -11.0241,6.3648 m 0.9019,-17.4165 -12.0263,-6.9434 m 0,0 -25.055,14.4655 m 0,0 4.2667,2.4634 m 30.223,-8.4892 2.5916,-1.4963 m -12.0263,-7.522 0,0.5786 m 12.0263,6.3648 0,0.5786 m -37.0813,6.9435 0,0.5786 m 36.1794,10.473 1.6119,0.9306 m 13.9221,-0.6412 3.5077,-2.0253 m 0,0 -8.0176,-4.6289 m 0,0 -11.0241,6.3648 m 11.0241,-6.3648 0,-0.5786 m 8.0176,4.6289 0,0.5786 m -19.0417,1.1573 0,0.5786 m 23.7521,0.9837 0,-0.5787 m 8.0175,5.2076 -8.0175,-4.6289 m 8.0175,4.0503 0,0.5786 m -19.0417,1.7359 1.6119,0.9306 m 13.9221,-0.6413 3.5077,-2.0252 m -8.0175,-4.6289 -11.0242,6.3648 m 0,-0.5786 0,0.5786 m -70.6977,-0.314 -4.2668,-2.4634 m 0,0 -25.0549,14.4655 m 0,0 2.5914,1.4962 m 22.4635,-16.5403 0,0.5786 m -25.0549,13.8869 0,0.5786 m 128.2813,-4.0503 3.5078,-2.0252 m 0,0 -8.0176,-4.629 m 0,0 -6.9256,3.9985 m 6.9256,-3.9985 0,-0.5786 m 8.0176,4.629 0,0.5786 m 4.7103,2.7195 0,-0.5786 m 8.0176,5.2075 -8.0176,-4.6289 m 8.0176,4.0503 0,0.5786 m -3.5078,2.0253 3.5078,-2.0253 m -8.0176,-4.6289 -6.9256,3.9985 m 19.6535,3.35 0,-0.5786 m 8.0176,5.2075 -8.0176,-4.6289 m 8.0176,4.0503 0,0.5786 m -3.5077,2.0252 3.5077,-2.0252 m -8.0176,-4.6289 -6.9256,3.9985 m 19.6535,3.3499 -6.9255,3.9985 m 6.9255,-3.9985 0,-0.5786 m 4.5099,7.2328 3.5078,-2.0252 m 0,0 -8.0177,-4.629 m 8.0177,4.0504 0,0.5786 m 32.1705,12.7875 -12.0264,-6.9435 m 0,0 -25.0549,14.4655 m 17.5024,3.7819 1.5397,-0.889 m 15.4476,-8.9186 2.5916,-1.4963 m -12.0264,-7.5221 0,0.5786 m 12.0264,6.3649 0,0.5786 m -37.0813,6.9434 0,0.5786 m -24.0528,-31.3529 0,-0.8183 m 0,0 -3.0066,-1.7359 m 0,0 -1.4173,0 m -1.0022,0.2397 -1.2993,0.7502 m 6.3103,2.1429 -1.2993,0.7502 m -1.2922,-3.883 0,-2.5459 m 0,0 -1.4173,-0.8183 m 4.4239,2.5542 0,2.5459 m -3.0066,-4.2818 3.0066,1.7359 m -5.4261,-2.6535 -4.5063,2.6017 m -42.4301,62.9207 0.3952,0.2282 m -1.0012,0.578 -0.3952,-0.2281 m 2.4221,-0.4628 -1.6475,0.9512 m -3.3797,-4.7335 0,-1.1933 m 30.513,-69.3414 0,-0.8182 m 0,0 -3.0066,-1.7359 m 0,0 -1.4174,0 m -1.0022,0.2397 -7.6024,4.3892 m 12.6134,-1.4961 -1.2993,0.7501 m -1.2921,-3.8829 0,-2.5459 m 0,0 -1.4174,-0.8183 m 4.424,2.5541 0,2.546 m -3.0066,-4.2818 3.0066,1.7358 m -5.4262,-2.6534 -7.6024,4.3893 m -4.4719,7.5579 -1.2406,0.7163 m 1.2406,-4.4194 -4.4476,2.5678 m 9.4586,4.0285 -1.2407,0.7162 m -25.9045,72.0112 0.3952,0.2282 m 2.6051,-3.0805 0,-12.8908 m -4.0088,1.6212 0,8.9551 m 0.4026,5.973 -0.3952,-0.2282 m 2.4221,-0.4627 -1.6476,0.9512 m -3.3796,-4.7335 0,-13.4647 m -0.1544,-4.5396 0,-18.5158 m 0,18.5158 27.6121,15.9419 m 54.7183,31.5916 17.5889,10.1549 m 0,-18.5158 0,18.5158 m 1.0022,-17.9372 -1.0022,-0.5786 m 7.5165,-44.6116 0,27.7738 m -114.9522,-94.1414 38.8664,22.4395 m 52.1111,30.0863 23.9747,13.8418 m -114.9522,-38.5939 0,-27.7737 m 7.5164,53.2908 -1.0021,-0.5786 m 8.2681,-38.3914 9.0198,5.2076 m -9.0198,-9.8366 0,4.629 m 12.7279,7.3485 8.6522,4.9953 m -8.6522,-9.6243 0,4.629 m 63.6396,36.7423 9.0198,5.2076 m -9.0198,-9.8366 0,4.629 m -88.3939,13.829 2.0044,1.1572 m -40.3385,20.975 38.3341,-22.1322 m 63.5895,82.1351 -18.5915,-10.7338 m -54.7186,-31.5919 -28.6135,-16.5199 m 142.2621,36.7134 -38.3341,22.1322 m 36.3297,-23.2895 2.0044,1.1573 m 0.7517,-2.7485 -2.7561,1.5912 m -99.9192,-57.6884 2.756,-1.5912 m 41.9915,70.8227 18.5915,10.7338 m -78.1214,-72.5878 -23.8022,13.7422 m 28.8132,-10.8492 -5.011,-2.893 m 19.7934,-5.6416 -14.7824,8.5346 m 106.684,44.5248 -13.5799,-7.8403 m -1.2025,16.375 14.7824,-8.5347 m -9.7714,11.4278 -5.011,-2.8931 m -18.7912,16.6353 23.8022,-13.7422 m -91.6511,-89.0785 0.054,-14.2651 m -11.3786,20.8035 11.3248,-6.5384 m -11.3786,-7.6646 0.054,14.203 m 13.8303,-3.356 0,18.5158 m 1.7539,-19.5284 -1.7539,1.0126 m 4.7604,-0.434 -2.756,1.5912 m 0,18.5158 0,-18.5158 m 0,0 -2.0044,-1.1572 m -43.8462,-1.0705 40.088,-23.1447 m -10.1303,12.2135 -1.0018,-0.5789 m 12.145,-5.8546 -11.1432,6.4335 m 8.9434,-5.1634 0,15.3912 m -19.1578,-33.4351 -11.7257,6.7698 m 11.7257,-6.7698 0,8.1007 m 0.5011,0.2893 6.6647,-3.8478 m 1.5033,-2.6038 0,-17.3586 m -1.5033,-0.868 -6.6647,3.8479 m -0.5011,0.8679 0,7.1749 m 0,0 -11.7257,6.7698 m 0,0 0,-7.1749 m -0.5011,-0.2893 -6.6646,3.8479 m -1.5033,2.6037 0,17.3586 m 1.5033,0.868 6.6646,-3.8479 m 0.5011,-0.8679 0,-8.1007 m 19.8937,-0.4918 -6.6647,3.8478 m 9.1702,-25.546 0,17.3586 m -17.5505,70.8299 33.6198,19.4104 m 49.7119,28.7012 12.9916,7.5007 m 0,0 0,6.4667 m -104.0926,-58.4117 0,-37.3788 m 14.6463,-30.9561 0,1.1572 m 3.2305,2.5841 -2.7902,-1.6109 m 6.7255,-26.5193 1.0022,-0.5786 m -19.8937,23.6366 2.0044,0 m 3.3171,1.9152 -3.3171,-1.9152 m 19.6609,-23.8121 3.5359,2.0415 m -23.1968,21.7706 0,8.1007 m -1.5033,2.6038 -6.6646,3.8478 m 24.8377,-41.7885 0,1.0055 m -13.2956,7.6763 0,-4.7994 m -14.0476,35.3023 0,1.1573 m 3.8228,3.4054 -3.089,-1.7834 m 65.3111,-20.7743 -9.0198,-5.2076 m 0,0 -0.5011,0.2893 m 9.5209,4.9183 -0.5011,0.2893 m -8.5187,-5.4969 0,-4.629 m -0.5011,0.2893 0.5011,-0.2893 m 0,0 9.0198,5.2076 m 0,0 0,4.629 m -55.3715,-5.5259 0,6.0177 m -6.2207,35.5974 -4.5099,-2.6038 m 8.2251,-39.3006 1.0022,-0.5786 m 1.063,-0.1053 2.8903,1.6687 m 56.6296,6.9713 0,-4.629 m -0.5011,0.2893 0.5011,-0.2893 m 0,4.629 -0.5011,0.2893 m 0.5011,-4.9183 9.0198,5.2076 m -0.5984,4.2834 -8.4214,-4.862 m 9.0198,0.5786 0,3.3479 m -37.6826,10.3654 0.9466,0.5465 m -2.4499,4.256 -0.034,0.0199 m 2.4724,1.3876 -2.4379,-1.4075 m 98.2274,84.4854 -14.7824,8.5346 m 0,0 5.6003,3.2334 m -5.6003,-3.2334 -0.069,-9.174 m 25.4631,7.9231 0,-2.3148 m -38.5846,16.9677 18.2019,-10.5089 m 21.1344,-23.0938 1.0022,-0.5786 m 0.4151,-19.4417 0,18.863 m -5e-4,-13.3162 5.0975,-2.943 m -22.299,-37.7549 0,-4.629 m -0.5011,0.2893 0.5011,-0.2893 m 0,4.629 -0.5011,0.2893 m 0.5011,-4.9183 9.0198,5.2076 m 0,4.629 -9.0198,-5.2076 m 9.0198,0.5786 0,4.629 m 0,0 -0.5011,0.2893 m -62.4011,-58.4613 0.2253,-0.1695 0.1415,-0.1973 0.048,-0.2118 m -4.424,-2.5542 -0.3668,0.0279 -0.3419,0.0818 -0.2935,0.13 m 0,-3.7032 0.2226,-0.1047 0.2546,-0.0767 m 83.2206,99.5222 0.2611,-0.1771 0.2531,-0.2244 0.2375,-0.265 0.2146,-0.2975 0.1853,-0.321 0.1503,-0.3346 0.1108,-0.3382 0.068,-0.3314 0.023,-0.3146 m -0.7656,-35.7378 0.2267,0.4618 0.1901,0.4702 0.1509,0.4714 0.1094,0.4658 0.066,0.4533 0.022,0.434 m -1.0022,-2.8931 -0.2302,-0.1077 -0.264,-0.0776 -0.2862,-0.0443 -0.2959,-0.009 -0.2927,0.0268 -0.2766,0.0613 -0.2485,0.0932 -0.2095,0.1209 -0.1614,0.1435 -0.1062,0.1597 -0.046,0.169 0.015,0.1708 0.077,0.1653 0.1345,0.1524 0.1865,0.1329 m 7.5164,0.868 -0.2481,0.1142 -0.2859,0.0795 -0.3095,0.0408 -0.3173,0 -0.3095,-0.0408 -0.2859,-0.0795 -0.2482,-0.1142 m 14.0308,-8.1007 0.1979,0.1432 0.1377,0.1651 0.071,0.1787 0,0.1832 -0.071,0.1787 -0.1377,0.1651 -0.1979,0.1432 m -10.022,-5.7862 0.2482,-0.1142 0.2859,-0.0795 0.3095,-0.0408 0.3173,0 0.3094,0.0408 0.286,0.0795 0.2481,0.1142 m 0,-3.4717 -0.2481,-0.1142 -0.286,-0.0795 -0.3094,-0.0408 -0.3173,0 -0.3095,0.0408 -0.2859,0.0795 -0.2482,0.1142 m 10.4371,5.2076 -0.048,-0.2118 -0.1416,-0.1974 -0.2253,-0.1694 m -71.2706,-30.0222 0.2253,-0.1694 0.1416,-0.1974 0.048,-0.2118 m -4.4239,-2.5541 -0.3669,0.0278 -0.3418,0.0818 -0.2935,0.13 m 0,-3.7031 0.2225,-0.1048 0.2546,-0.0767 m -58.4208,32.3436 -0.5573,-0.3381 -0.5977,-0.3144 -0.6349,-0.289 -0.669,-0.2622 m -41.4066,6.4122 -0.261,0.1243 -0.2531,0.0678 -0.2375,0.009 -0.2147,-0.0497 -0.1853,-0.1069 -0.1503,-0.1611 -0.1107,-0.2103 -0.068,-0.2531 -0.023,-0.2883 m 42.0924,-24.302 -0.023,0.3146 -0.068,0.3315 -0.1107,0.3381 -0.1503,0.3347 -0.1853,0.3209 -0.2147,0.2975 -0.2374,0.265 -0.2532,0.2244 -0.261,0.1771 m -3.3574,-25.4882 -0.023,-0.2882 -0.068,-0.2531 -0.1108,-0.2103 -0.1503,-0.1611 -0.1853,-0.107 -0.2146,-0.0496 -0.2375,0.009 -0.2531,0.0678 -0.2611,0.1244 m 0.902,3.4138 0.2063,-0.3349 0.1683,-0.3533 0.1245,-0.3594 0.076,-0.3532 0.026,-0.335"
       sodipodi:nodetypes="cccccccccccccccccccccccccccccccccccccccccccccccccccccccccccccccccccccccccccccccccccccccccccccccccccccccccccccccccccccccccccccccccccccccccccccccccccccccccccccccccccccccccccccccccccccccccccccccccccccccccccccccccccccccccccccccccccccccccccccccccccccccccccccccccccccccccccccccccccccccccccccccccccccccccccccccccccccccccccccccccccccccccccccccccccccccccccccccccccccccccccccccccccccccccccccccccccccccccccccccccccccccccccccccccccccccccccccccccccccccccccccccccccccccccccccccccccccccccccccccccccccccccccccccccccccccccccccccccccccccccccccccccccccccccccccccccccccccccccccccccccccccccccccccccccccccccccccccccccccccccccccccccccccccccccccccccccccccccccccccccccccccccccccccccccccccccccccccccccccccccccccccccccccccccccccccccccccccccccccccccccccccccccccccccccccccccccccccccccccccccccccccccccccccccccccccccccccccccccccccccccccccccccccccccccccccccccccccccccccccccccc" /></g></svg>