<?xml version="1.0" encoding="UTF-8" standalone="no"?>
<!-- Created with Inkscape (http://www.inkscape.org/) -->

<svg
   xmlns:dc="http://purl.org/dc/elements/1.1/"
   xmlns:cc="http://creativecommons.org/ns#"
   xmlns:rdf="http://www.w3.org/1999/02/22-rdf-syntax-ns#"
   xmlns:svg="http://www.w3.org/2000/svg"
   xmlns="http://www.w3.org/2000/svg"
   xmlns:sodipodi="http://sodipodi.sourceforge.net/DTD/sodipodi-0.dtd"
   xmlns:inkscape="http://www.inkscape.org/namespaces/inkscape"
   id="svg2"
   version="1.1"
   inkscape:version="0.48.5 r10040"
   width="381.96112"
   height="287.58093"
   xml:space="preserve"
   sodipodi:docname="1521XXXX601.PDF"><metadata
     id="metadata8"><rdf:RDF><cc:Work
         rdf:about=""><dc:format>image/svg+xml</dc:format><dc:type
           rdf:resource="http://purl.org/dc/dcmitype/StillImage" /><dc:title></dc:title></cc:Work></rdf:RDF></metadata><defs
     id="defs6" /><sodipodi:namedview
     pagecolor="#ffffff"
     bordercolor="#666666"
     borderopacity="1"
     objecttolerance="10"
     gridtolerance="10"
     guidetolerance="10"
     inkscape:pageopacity="0"
     inkscape:pageshadow="2"
     inkscape:window-width="1920"
     inkscape:window-height="1023"
     id="namedview4"
     showgrid="false"
     fit-margin-top="0"
     fit-margin-left="0"
     fit-margin-right="0"
     fit-margin-bottom="0"
     inkscape:zoom="0.89702926"
     inkscape:cx="182.29353"
     inkscape:cy="117.04348"
     inkscape:window-x="0"
     inkscape:window-y="0"
     inkscape:window-maximized="1"
     inkscape:current-layer="g10" /><g
     id="g10"
     inkscape:groupmode="layer"
     inkscape:label="1521XXXX601"
     transform="matrix(1.25,0,0,-1.25,-2030.7344,169.3368)"><path
       inkscape:connector-curvature="0"
       id="path252"
       style="fill:none;stroke:#000000;stroke-width:1.41729999;stroke-linecap:round;stroke-linejoin:miter;stroke-miterlimit:10;stroke-opacity:1;stroke-dasharray:none"
       d="m 1743.0334,94.930242 0.1187,0.3418 0.1481,0.3285 0.1733,0.3068 0.1944,0.2766 0.2116,0.2382 m -1.6998,1.028 -0.3214,-0.3351 -0.3307,-0.377 -0.3228,-0.3983 -0.2978,-0.3988 m -13.2368,-64.7561 -0.5683,-0.817 -0.5949,-0.7747 -0.6076,-0.7133 -0.6059,-0.6359 m -6.434,-6.3532 -0.1781,-0.1758 -0.1732,-0.1711 m -0.4,2.2352 0.2669,0.0411 0.2539,0.0821 0.2256,0.1194 0.1853,0.1489 m -5.6661,3.4268 -0.1407,-0.172 -0.095,-0.1946 -0.043,-0.2069 m 8.0547,8.5873 -0.4311,-0.6104 -0.4534,-0.5614 -0.4565,-0.4887 m 5.6661,-3.4268 0.4565,0.4887 0.4533,0.5614 0.4311,0.6104 m -3.8983,5.7323 -0.6068,-0.714 -0.5938,-0.7748 -0.5671,-0.8167 m 5.666,-3.4268 0.5671,0.8167 0.5939,0.7748 0.6068,0.714 m 0.4238,-1.6514 -0.4548,-0.4868 -0.4518,-0.559 -0.4297,-0.6078 m -9.162,-9.641 -0.151,0.0674 -0.1197,0.0488 -0.1001,0.0373 -0.092,0.0333 -0.096,0.0367 m 72.8703,-43.3975 -0.178,-0.1758 -0.1733,-0.1711 m -5.1343,6.0535 -0.1408,-0.172 -0.095,-0.1946 -0.043,-0.2069 m 5.414,-5.48 -0.151,0.0675 -0.1196,0.0487 -0.1002,0.0373 -0.092,0.0334 -0.096,0.0366 m 22.3106,93.9954 -0.2113,-0.2378 -0.1943,-0.2761 -0.1731,-0.3062 -0.148,-0.3279 -0.1187,-0.3412 m 31.6805,-40.8033 -0.1732,-0.1711 -0.178,-0.1758 m 0.2887,0.6885 -0.01,-0.0981 0.017,-0.1111 0.054,-0.1324 m -92.0816,75.583198 0.7122,1.0402 m 0,0 0.2978,0.3987 0.3229,0.3983 0.3306,0.3771 0.3215,0.3351 m 1.6998,-1.0281 -0.2097,-0.2356 -0.1929,-0.2736 -0.1721,-0.3032 -0.1476,-0.3247 -0.1189,-0.3382 m -6.5287,16.1099 0.077,0.0738 0.087,0.0657 0.1042,0.0541 0.1278,0.0388 0.1581,0.0197 0.1947,-0.003 m -31.2858,-21.5007 -0.019,0.0774 0.04,0.0627 m 124.8843,-36.915998 0.095,0.2242 0.082,0.2353 0.062,0.2464 0.035,0.2576 10e-4,0.269 -0.04,0.2806 m -12.6402,-12.6358 0.1045,-0.0469 0.099,-0.053 m 5.1434,-4.7671 0.1551,0.3384 0.1023,0.3648 0.039,0.3879 -0.036,0.4079" /><path
       inkscape:connector-curvature="0"
       id="path256"
       style="fill:none;stroke:#000000;stroke-width:1.41729999;stroke-linecap:round;stroke-linejoin:miter;stroke-miterlimit:10;stroke-opacity:1;stroke-dasharray:none"
       d="m 1820.7994,-8.3301576 -0.2504,0.1754 -0.2341,0.2126 -0.2062,0.239 -0.168,0.2534 -0.1213,0.2552 -0.069,0.2441 -0.012,0.2209 m -1.9814,-0.1522 -0.037,-0.2247 -0.078,-0.2554 -0.1148,-0.2733 -0.1457,-0.2775 -0.1695,-0.2678 -0.1846,-0.2448 -0.1906,-0.2093 m -103.9153,62.8472996 0.1906,0.2093 0.1846,0.2447 0.1695,0.2678 0.1458,0.2776 0.1147,0.2733 0.078,0.2554 0.037,0.2246 m 140.2394,-59.1888996 -0.1595,-0.0296 -0.1334,0.0229 -0.1034,0.0746 -0.07,0.1244 -0.036,0.1706 3e-4,0.212 m -14.2731,21.6144996 -0.2503,0.1755 -0.2342,0.2125 -0.2062,0.239 -0.168,0.2535 -0.1212,0.2552 -0.068,0.2441 -0.012,0.2208 m -138.9864,60.7325 -0.2429,-0.257 -0.2409,-0.2891 -0.234,-0.3152 -0.2223,-0.3349 -0.2062,-0.3478 -0.1857,-0.3537 -0.1616,-0.3523 -0.1341,-0.3437 -0.104,-0.3283 -0.072,-0.306 -0.038,-0.2775 m 141.3183,-55.7818 -0.077,-0.0726 -0.076,-0.0643 m -141.6607,62.8983 -0.2143,-0.2294 -0.2113,-0.2615 -0.2023,-0.2864 -0.1878,-0.3032 -0.1678,-0.3114 -0.1432,-0.3109 m 6.9875,7.4251 -0.1043,-0.0546 -0.1162,-0.0982 m 9.7884,-33.0842 0.2635,-0.1335 0.2532,-0.0768 0.2293,-0.0161 0.1928,0.0457 m 0.045,43.901498 -0.1328,-0.1518 -0.1234,-0.1818 -0.1018,-0.1939 -0.07,-0.187 -0.032,-0.1619 m 19.9373,13.6171 -0.1552,0.0521 -0.1882,-0.0102 -0.2166,-0.0725 -0.2393,-0.1328 -0.2562,-0.1897 -0.2666,-0.242 m -11.8531,-6.1178 -0.2033,-0.0937 -0.2231,-0.1546 -0.2351,-0.21 m 107.6362,-43.010898 -0.2002,-0.225 -0.1846,-0.2572 -0.169,-0.2895 -0.1642,-0.3538 -0.1298,-0.3733 m -2.8444,-0.0339 0.7196,1.0515 m 0,0 0.1958,0.2658 0.2069,0.2657 0.2179,0.2656 0.2196,0.254 0.2174,0.2374 0.2151,0.2207 m 18.0687,-34.2657 0.018,-0.2914 m -27.9955,21.3943 0.089,0.2683 0.1,0.2581 0.1161,0.2425 0.1606,0.2591 0.1805,0.2399 0.1905,0.2304 m -2.9726,-0.4812 -0.7156,-1.0453 m 1.9883,2.5545 -0.2097,-0.2187 -0.208,-0.2233 -0.2048,-0.2323 -0.1655,-0.2006 -0.163,-0.2076 -0.1613,-0.2122 -0.1604,-0.2145 m -22.4567,-74.3633 -0.136,0.0557 -0.1372,0.051 -0.1427,0.051 -0.085,0.032 m 32.3598,58.3739 0.2749,-0.0837 0.245,-0.073 0.1952,-0.0549 0.1654,-0.0441 m -0.8805,0.2557 -0.3009,-0.1484 -0.2868,-0.123 -0.2637,-0.0809 -0.2495,-0.0556 m -104.417,64.224298 0.2509,-0.688498 0.2508,-0.6886 m 117.347,-51.3885 0.1595,0.7201 0.1595,0.7201 m -5.666,3.4267 0.1214,-0.1383 m 12.2821,11.2611 0.1392,0.3448 0.1068,0.3531 0.053,0.3669 0.02,0.3753 m -18.6973,-63.4265996 0.2153,0.1583 0.2357,0.1809 0.2561,0.2034 0.2765,0.2259 0.2969,0.2484 m 0,0 0.3529,0.2036 0.3571,0.1958 0.3653,0.1802 0.3779,0.1567 0.3385,0.1123 0.3478,0.0947 0.354,0.0831 0.3571,0.0773 m 20.5988,-15.8413004 0.08,0.266 0.055,0.2478 0.03,0.2267 m -1.4944,-4.6439 0.3106,0.9003 0.325,0.9506 0.3394,1.0011 0.3539,1.0514 m -1.594,-4.5408 0.2651,0.6374 m 12.9606,51.5705 0,0.2713 -0.01,0.2602 -0.011,0.2381 -0.017,0.2047 -0.031,0.1864 -0.039,0.1417 -0.045,0.112 -0.048,0.0971 m 0,0 -0.032,0.0135 -0.07,-0.0214 -0.1072,-0.0564 -0.1451,-0.0914 -0.1828,-0.1263 m -142.1502,63.586498 0.053,0.0356 m 12.1188,12.0904 0.4781,0.365 m 17.9564,8.6792 0.4323,0.4569 m -46.6072,-44.755598 -0.016,0.3951 -0.016,0.3907 -0.015,0.3817 -0.013,0.3682 -0.011,0.3529 -0.01,0.3394 -0.01,0.3304 -0.01,0.3259 m 0.4487,-4.8904 -0.1123,0.3092 -0.1,0.3153 -0.076,0.3272 -0.054,0.5172 -0.013,0.5372 m 34.879,34.440998 0.3263,-0.2281 0.298,-0.2763 0.012,-0.0135 m -3.3779,0.787 0.3804,0.0429 0.3757,0.0331 0.3662,0.0135 0.3519,-0.0159 0.3335,-0.0516 0.3193,-0.0808 0.3098,-0.1003 0.3052,-0.11" /><path
       inkscape:connector-curvature="0"
       id="path260"
       style="fill:none;stroke:#000000;stroke-width:1.41729999;stroke-linecap:round;stroke-linejoin:miter;stroke-miterlimit:10;stroke-opacity:1;stroke-dasharray:none"
       d="m 1808.2388,53.747542 3.3927,3.35 m 2.2733,-6.7768 -5.666,3.4268 m 9.0587,-0.0767 -3.3927,-3.3501 m 27.7511,13.3402 -11.6822,-11.5356 m -18.4476,3.6403 0.1054,1.3319 m -0.1054,-1.3319 -2.5161,-2.4845 m 15.7521,7.2192 0.9869,-1.366 m 2.9147,5.2186 -3.9016,-3.8526 m 9.4686,7.0092 -5.567,-3.1566 m -10.2476,-0.0146 -5.1324,2.3349 m 11.4784,-6.1729 -6.346,3.838 m 19.8294,-43.7718 3.4104,43.0944 m -9.4382,-49.0464 6.0278,5.952 m -21.8246,32.2387 -4.8948,2.9604 m -0.074,-3.9614 0.3026,3.8232 m -9.3059,7.4289 1.0515,-0.6359 m 23.9086,-58.6253996 1.8294,-1.1065 m -1.8412,-3.50540003 -4.1193,2.49130003 m 24.8954,-12.9802004 0.1498,1.8932004 m -19.0847,12.1011 32.2305,31.8258996 m -59.2744,28.2907 0.7115,-0.4303 m -3.3927,-3.3501 -3.2562,1.9693 m 6.6489,1.3808 -3.3927,-3.3501 m 60.1262,-23.4039 -32.2305,-31.8257996 m -2.8506,-1.1037 34.8789,34.4409996 m -37.1194,31.0586 -0.5523,6.8575 m -3.3493,-10.7101 3.9016,3.8526 m 39.151,-33.6765 -1.8294,1.1064 m -46.5249,19.1842 -0.1953,-2.4684 m 10.3586,-50.6621996 -0.8357,-0.5975 M 1858.0652,36.252842 1822.442,1.0769424 m 35.6232,35.1758996 0.8357,0.5975 m -156.6946,36.9443 -0.6691,1.5076 m -0.4685,-18.8974 1.311,16.5656 m 116.6608,-89.3527 -34.0031,20.5649004 m -52.6768,31.8584996 -29.7007,17.9628 m 119.5,-53.47569963 -1.311,-16.56560037 m -4.437,-3.5503 9.0657,-5.4829 m -10.4162,3.4226 0.1449,1.8304 m -8.0774,2.9671 7.9325,-4.7975 m -7.6427,8.4584 -0.2898,-3.6609 m -93.4266,60.3399 18.1956,-11.0046 m 51.0169,-30.8545996 24.5039,-14.8198004 m -94.0062,53.0181 0.2898,3.6609 m -8.2222,1.1366 7.9324,-4.7975 m -7.7876,6.6279 -0.1448,-1.8304 m -9.9816,8.9139 9.0656,-5.4829 m -7.1462,29.7365 -1.9194,-24.2536 m 6.0387,21.7623 -4.1193,2.4913 m 124.8998,-9.6026 6.346,-3.838 m -80.8745,57.710998 0.9677,-1.645 m 93.2181,-55.317898 -25.8791,15.6514 m -53.1884,32.167998 -15.1183,9.1435 m 62.5811,-52.859498 -1.0514,0.6359 m 1.0514,-0.6359 0.987,-1.3661 m 2.9146,5.2187 -3.9016,-3.8526 m 9.4686,7.0091 -5.567,-3.1565 m 10.4047,-12.0998 -5.6661,3.4268 m 9.0588,-0.0767 -3.3927,-3.3501 m -2.2733,6.7769 5.666,-3.4268 m -9.0588,0.0767 3.3928,3.3501 m -20.3742,-6.2248 -0.7114,0.4303 m -4.2574,-1.4314 0.1234,1.5592 m 25.2196,5.6667 -0.1055,-1.332 m 0,0 -2.5161,-2.4845 m 17.6961,-68.9660996 1.9814,0.1522 m 0.3201,4.22969997 1.0608,-1.60059997 m -13.6474,65.7089996 -4.8949,2.9603 m 15.18,-71.4505996 -2.9215,1.7669 m 2.6611,4.16439997 2.5619,-1.5494 m -1.2542,21.80669963 3.4501,43.5951 m -19.7589,-2.29 0.3026,3.8232 m -23.8305,-3.1927 -0.1611,-2.0351 m 47.1097,-73.3361 0.4491,5.6745004 m -6.5497,-12.1204004 5.6403,5.5696 m -5.7175,8.2755004 -1.0864,-13.7285004 m 8.1077,21.9271004 -5.6404,-5.5695 m 5.5213,-0.8759 0.5069,6.4066 m -0.5069,-6.4066 9.9235,9.799 m 0.507,6.4065996 -0.507,-6.4065996 m 6.6077,12.8524996 -5.6404,-5.5696 m 5.7176,-8.2753996 1.0864,13.7283996 m -8.1077,-21.9270996 5.6403,5.5695 m -5.5791,0.1438 -0.4491,-5.6744 m -9.4745,-4.1246 9.9236,9.799 m -16.2304,-3.84460003 5.6404,5.56950003 m 0,0 1.0608,-1.6006 m -33.26,70.3905996 1.0514,-0.6359 m 31.1478,-68.1540996 -2.5619,1.5494 m -6.4664,-25.2293004 1.9814,0.1522 m -1.9814,-0.1522 1.0864,13.7285004 m -3.7687,-12.1062004 2.6823,-1.6223 m -26.1065,88.4382 -0.7115,0.4303 m 4.1041,2.9198 -3.3926,-3.3501 m 2.6812,3.7804 0.7114,-0.4303 m 10.2012,-7.5657 -0.196,-2.4776 m -10.8818,9.1778 -0.7114,0.4303 m 34.7762,-69.2205996 -0.2905,1.7069 m -0.1639,0.2868 -2.8767,1.7398 m -101.5031,86.2949996 0.4536,-0.6279 m 3.448,4.4805 -3.9016,-3.8526 m 3.9016,3.8526 2.5587,1.4507 m -17.9387,0.8695 5.1325,-2.3348 m 6.3459,-3.838 -6.3459,3.838 m 121.5666,-83.2832 -1.0607,1.6006 m 0.6004,-2.4769 -1.9813,-0.1522 m 0,0 -2.6531,1.6046 m 1.4721,2.574 2.5619,-1.5495 m -1.8879,-9.0356996 -3.1092,1.8804 m 5.0905,-1.7282 -1.9813,-0.1522 m -114.7164,94.5708976 -0.5524,6.8574 m -3.3492,-10.709998 3.9016,3.852598 m 116.6043,-85.535198 5.6403,5.5696 m 1.0608,-1.6006 -1.0608,1.6006 m -7.5282,-14.6052996 0.507,6.4065996 m 7.0212,8.1987 -2.5619,1.5494 m -119.6827,78.416198 6.3459,-3.837998 m -29.1824,3.200198 12.6498,12.491 m 0,0 0.9677,-1.6449 m 106.8602,-131.017998 1.6466,0.5354 m -19.8345,2.8174 1.9325,1.9083 m -81.3003,115.091698 5.666,-3.426798 m -9.0587,0.0767 3.3927,3.350098 m 2.2734,-6.776898 -5.6661,3.4268 m 9.0587,-0.0767 -3.3926,-3.3501 m 91.5232,-111.6152 3.2088,-1.9407 m -122.7507,84.845 -11.2675,-11.126 m 136.4251,-25.7884 6.7156,-4.0615 m -24.2857,-31.7776996 -0.7155,-0.7065 m 18.5068,27.2960996 -7.3159,-7.224 m 6.6099,10.352 0.136,-0.0822 m -126.3849,35.2467 1.0341,1.0211 m 103.4512,-66.9140996 -28.7536,17.3901 m -54.9501,33.2333996 -20.2116,12.2238 m 151.1268,-34.5448 -0.2904,1.7069 m -124.1904,77.911 0.1054,1.331898 m -0.1054,-1.331898 -2.5161,-2.4845 m -20.324,3.708298 -3.45,-43.594898 m 39.5261,47.105798 0.4536,-0.6279 m 3.448,4.4805 -3.9016,-3.8526 m 6.4603,5.3034 -2.5587,-1.4508 m -10.2476,-0.0146 -5.1324,2.3348 m 11.4784,-6.1728 -6.346,3.838 m 117.0271,-86.005698 -3.1195,1.8867 m -115.9028,72.5859 -4.8948,2.9604 m 123.1082,-64.1066 -3.1548,1.908 m -120.0275,58.2371 0.3026,3.8232 m -10.3953,13.780298 5.6661,-3.4268 m 0,0 0.9677,-1.6449 m -0.9677,1.6449 12.7226,12.5629 m 2.5697,-10.3528 -0.5523,6.8575 m -3.3493,-10.7101 3.9016,3.8526 m -9.2032,-13.385998 -0.1953,-2.4669 m 9.3985,15.852898 6.346,-3.838 m 58.9636,-127.234198 -0.4622,-0.4565 m 38.373,17.1690004 0.2941,3.7171 m 1.6872,-3.5649 -1.9813,-0.1522 m -100.8615,107.1259976 -5.666,3.4267 m 9.0587,-0.0766 -3.3927,-3.3501 m -2.2733,6.7768 5.666,-3.4267 m -9.0587,0.0766 3.3927,3.3501 m 66.424,-131.117798 -1.8071,-1.7844 m 36.3657,20.3010004 2.1522,-1.3016 m -106.2968,124.3314976 -12.2761,-12.1219 m 15.4381,1.6932 -0.1054,-1.3319 m 0,0 -2.5162,-2.4845 m 7.411,-0.4759 -4.8948,2.9604 m -0.082,-3.9569 0.3025,3.8232 m 103.5214,-113.0120976 1.6466,0.5354 m -4.5891,1.0566 2.6123,-1.58 m -101.8314,112.1772976 -0.1918,-2.4243 m -50.6396,-26.348898 -1.8294,1.1064 m 16.4061,5.7855 -13.4589,-13.2899 m -1.0243,3.5137 14.8715,14.6848 m 18.2319,18.002898 1.7756,1.7533 m -2.742,0.2691 -0.903,-0.8916 m -16.1072,-15.904998 -15.2203,-15.0292 m 30.4011,32.932198 1.8294,-1.1064 m -34.0599,-30.719398 17.2997,17.0825 m 14.0278,13.851698 0.903,0.8916 m -29.1099,-40.154398 13.2001,13.0344 m -14.5111,-29.6 13.2001,13.0343 m -16.6054,15.4753 -0.7408,-0.1413 m 6.3811,5.7108 -0.7408,-0.1413 m 0,0 -5.6403,-5.5695 m 6.6541,5.9803 -0.7933,-0.258 m 13.0385,-48.2878 -2.4094,-2.3791 m -0.5381,60.274298 0.027,-0.142198 m 0.4337,1.018598 0.7408,0.1412 m 22.0052,10.6225 -3.269,1.977 m 3.3628,-2.0338 -0.094,0.0568 m -17.1057,-5.1942 0.7409,0.1413 m -0.7409,-0.1413 -5.6403,-5.5695 m -0.4603,-0.8764 -0.014,-0.182798 m 7.3738,7.281298 -0.5973,-0.1943 m 22.2411,-97.3911976 -0.1707,-2.1567 m 14.5636,-6.54810003 -0.1707,-2.15659997 m 71.8673,-33.2077004 0.2173,2.7457 m 14.6994,63.5899 0.1809,0.2401 0.091,0.2704 0,0.2824 m -0.2054,-2.6864 -0.095,-0.2035 -0.1477,-0.1829 m -45.2696,-42.5994 0.3433,0.3604 0.3415,0.4013 0.3344,0.4356 0.3218,0.4632 m 0,0 0.4252,0.6198 0.439,0.5943 0.4489,0.5636004 0.4547,0.5278 m 0.4238,-1.6514004 -0.342,-0.359 -0.3403,-0.3996 -0.3332,-0.4338 -0.3209,-0.4612 m 0,0 -0.4544,-0.6597 -0.4696,-0.63 -0.4802,-0.5942 -0.4858,-0.5522 -0.4866,-0.5047 m -7.1853,-4.465 0.3558,0.0646 0.3177,0.1335 0.2582,0.1934 m -0.1805,-2.2798 -0.1942,-0.1547 -0.2327,-0.1203 m 2.7163,13.9954004 -0.3218,-0.4632 -0.3343,-0.4357 -0.3415,-0.4012 -0.3433,-0.3604 m 3.1087,3.966 -0.4547,-0.5278 -0.4488,-0.5636 -0.439,-0.5943 -0.4253,-0.6198 m 39.0858,7.88239997 -0.2225,-0.239 -0.2191,-0.2735 -0.2091,-0.2996 -0.1925,-0.31659997 -0.1702,-0.3241 -0.1427,-0.3216 -0.1109,-0.3095 -0.076,-0.2878 -0.038,-0.2575 m 35.6232,35.1759996 -4e-4,0.2193 -0.039,0.1745 -0.077,0.1243 -0.1117,0.0704 -0.1434,0.0144 -0.1708,-0.0421 -0.193,-0.0974 -0.2093,-0.1495 -0.2193,-0.1974 m -13.5654,-34.6115996 -0.2022,-0.1226 -0.1826,-0.0682 -0.1572,-0.0115 -0.1271,0.0454 -0.093,0.1009 -0.056,0.1535 m 11.0354,25.3017996 -0.039,-0.2626 -0.078,-0.294 m -0.9955,1.3139 0.2193,0.1973 0.2093,0.1495 0.193,0.0974 0.1708,0.0421 0.1434,-0.0144 0.1117,-0.0704 0.077,-0.1243 0.039,-0.1745 4e-4,-0.2193 m -9.8387,-9.7153 0.038,0.2575 0.076,0.2878 0.1109,0.3095 0.1427,0.3216 0.1702,0.3241 0.1926,0.3166 0.209,0.2996 0.2191,0.2735 0.2226,0.239 m -2.6673,-9.0037996 0.1905,0.2093 0.1846,0.2447 0.1695,0.2678 0.1458,0.2776 0.1148,0.2733 0.078,0.2554 0.037,0.2246 m -8.5162,-2.883 0.2192,0.1973 0.2094,0.1496 0.1929,0.0974 0.1708,0.0421 0.1435,-0.0144 0.1117,-0.0704 0.077,-0.1243 0.039,-0.1745 5e-4,-0.2193 m -9.8388,-9.7153 0.038,0.2575 0.076,0.2878 0.1109,0.3095 0.1427,0.3216 0.1702,0.3241 0.1925,0.3166 0.209,0.29959997 0.2191,0.2735 0.2226,0.239 m -1.0096,-3.86559997 -0.1611,-0.002 -0.1264,0.0619 -0.087,0.1234 -0.045,0.1806 0,0.2316 m 0.4615,-0.5906 -0.02,-0.002 -0.02,-0.003 m -0.985,-12.4471004 0.023,0.0392 0.022,0.0393 m -0.6411,-1.6793 0.042,0.2747 0.084,0.3083 0.1234,0.3315 0.1584,0.3432 0.1882,0.3431 m 0.517,-2.358 -0.2193,-0.1973 -0.2092,-0.1496 -0.1931,-0.0974 -0.1708,-0.0421 -0.1434,0.0144 -0.1116,0.0704 -0.077,0.1243 -0.039,0.1745 -5e-4,0.2193 m -5.9053,18.31220037 0.044,0.2841 0.089,0.3195 0.1304,0.3434 0.1672,0.3547 0.1979,0.35300003 m -1.7251,-31.0247004 0.39,-0.0953 0.3699,-0.0451 0.3443,0.006 0.3135,0.0565 0.2781,0.1065 0.2385,0.1548 0.1955,0.2009 0.1496,0.2439 0.1013,0.2834 0.052,0.3186 m -5.096,0.381 -0.2171,0.1608 -0.1705,0.1904 -0.1165,0.2116 -0.057,0.2236 0,0.2259 0.066,0.2182 0.1242,0.2011 0.1773,0.1751 0.2227,0.1415 0.2584,0.1016 0.2827,0.0575 0.2947,0.0106 0.2938,-0.0365 0.2801,-0.0821 0.2542,-0.1242 m 2.5549,-5.5967 0.1603,0.2035 0.095,0.2277 0.026,0.2405 -0.045,0.2411 -0.1138,0.2298 -0.1767,0.2068 -0.231,0.1735 m -11.8744,-11.7253 0.2735,-0.1315 0.3022,-0.083 0.3159,-0.0301 0.3138,0.0241 0.2958,0.0771 0.2631,0.1263 0.2171,0.1692 m -11.3321,6.8536 -0.1603,-0.2036 -0.095,-0.2277 -0.026,-0.2404 0.045,-0.2412 0.1138,-0.2297 0.1768,-0.2068 0.2309,-0.1735 m 10.8297,-8.0764 -0.2171,-0.1691 -0.2631,-0.1264 -0.2958,-0.0771 -0.3137,-0.0241 -0.316,0.0301 -0.3022,0.083 -0.2735,0.1315 m -9.0656,5.4828 -0.2514,0.1931 -0.1847,0.2323 -0.1066,0.2572 -0.022,0.2667 m 22.0696,4.3439 -0.084,-0.3043 -0.1958,-0.2693 m 34.8993,70.1919 0.1532,0.0134 0.1252,-0.0401 m -26.4822,-56.3412 -0.068,-0.3771 -0.1384,-0.3255 -0.2061,-0.2669 m 31.4921,46.9961 0.2171,0.1692 0.2631,0.1263 0.2958,0.0772 0.3138,0.024 0.3159,-0.0301 0.3022,-0.0829 0.2734,-0.1315 m 9.0657,-5.4829 0.2309,-0.1735 0.1768,-0.2068 0.1138,-0.2297 0.045,-0.2412 -0.026,-0.2404 -0.095,-0.2277 -0.1604,-0.2036 m -10.178,-10.0501996 -0.2172,-0.1692 -0.263,-0.1264 -0.2958,-0.0771 -0.3138,-0.0241 -0.3159,0.0302 -0.3023,0.0829 -0.2734,0.1315 m -2.2629,-1.3324 -0.068,-0.3771 -0.1383,-0.3254 -0.2062,-0.267 m 2.4578,-0.4438 0.2735,-0.1315 0.3022,-0.0829 0.3159,-0.0302 0.3138,0.0241 0.2958,0.0772 0.2631,0.1263 0.2171,0.1692 m 10.1781,10.0501996 0.1958,0.2693 0.084,0.3043 m -185.1831,34.4529 0.2542,-0.1242 0.2801,-0.0822 0.2938,-0.0365 0.2947,0.0106 0.2827,0.0575 0.2583,0.1016 0.2227,0.1415 0.1773,0.1751 0.1242,0.2011 0.066,0.2182 0,0.2259 -0.058,0.2236 -0.1164,0.2116 -0.1706,0.1904 -0.2171,0.1608 m -8.6885,-19.2302 0.2734,-0.1315 0.3022,-0.0829 0.3159,-0.0301 0.3138,0.0241 0.2958,0.0771 0.2631,0.1263 0.2172,0.1692 m 129.9917,50.4297 0.3898,0.3669 0.3833,0.3247 0.3737,0.2797 0.3607,0.2325 0.3449,0.1831 0.3259,0.1322 0.3043,0.0802 0.2799,0.0276 0.2534,-0.0254 0.2245,-0.0781 0.1938,-0.1301 0.1614,-0.1811 0.1276,-0.2304 0.093,-0.2778 0.057,-0.323 0.021,-0.3651 -0.015,-0.4044 m -21.9872,-17.4926 0.187,0.1634 0.1739,0.1094 0.1522,0.0497 0.1228,-0.0123 0.087,-0.0737 0.047,-0.1315 0.01,-0.1827 m -8.4746,-11.7431 0.052,0.4401 0.087,0.4721 0.1223,0.5 0.1562,0.5237 0.1888,0.5429 0.2198,0.5575 0.249,0.5673 0.276,0.5723 0.3006,0.5724 0.3227,0.5676 0.3421,0.558 0.3585,0.5436 0.3719,0.5246 0.382,0.5011 0.389,0.4733 0.3926,0.4415 0.3928,0.4059 m -8.3093,-48.7374 -0.2371,-0.2019 -0.2271,-0.1585 -0.2126,-0.1117 -0.1937,-0.0629 -0.1708,-0.0126 -0.1446,0.0378 -0.1153,0.0875 -0.084,0.1355 -0.05,0.1806 -0.016,0.2221 0.019,0.2591 m -2.9804,35.7995 0.3897,0.3669 0.3834,0.3247 0.3736,0.2797 0.3608,0.2325 0.3448,0.1831 0.3259,0.1322 0.3043,0.0802 0.28,0.0276 0.2533,-0.0254 0.2245,-0.0781 0.1938,-0.1301 0.1614,-0.1811 0.1276,-0.2304 0.093,-0.2778 0.057,-0.3229 0.021,-0.3652 -0.015,-0.4044 m 38.1677,37.6885 0.052,0.4401 0.087,0.4721 0.1223,0.5 0.1562,0.5237 0.1888,0.5429 0.2198,0.5575 0.249,0.5673 0.276,0.5723 0.3006,0.5724 0.3228,0.5676 0.342,0.5579 0.3585,0.5436 0.3719,0.5246 0.382,0.5011 0.389,0.4733 0.3926,0.4414 0.3928,0.406 m -13.6205,-102.7223996 0.2735,-0.1315 0.3022,-0.0829 0.3159,-0.0302 0.3137,0.0241 0.2959,0.0771 0.2631,0.1264 0.2171,0.1692 m 9.4996,9.4181 -0.2429,-0.257 -0.2409,-0.289 -0.234,-0.3152 -0.2223,-0.3349 -0.2062,-0.3479 -0.1857,-0.35360003 -0.1616,-0.3523 -0.1342,-0.3438 -0.1039,-0.3282 -0.072,-0.306 -0.038,-0.2775 m 35.1898,35.98189963 -0.185,-0.0243 -0.2092,-0.0797 -0.2287,-0.1331 -0.2431,-0.1836 -0.2521,-0.2299 m -159.089,38.456 -0.01,0.254 -0.058,0.2776 -0.1081,0.2926 m 0.4536,-19.7907 -0.2935,0.1994 -0.2813,0.235 -0.2606,0.2635 -0.2318,0.2841 -0.1961,0.2959 -0.1545,0.2988 -0.108,0.2926 -0.058,0.2776 -0.01,0.254 m 119.7802,-72.4422 -0.045,-0.2228 -0.095,-0.1848 -0.1424,-0.1411 -0.1855,-0.0933 -0.2229,-0.0425 -0.2536,0.01 -0.2765,0.0613 -0.2911,0.1112 -0.2968,0.1576 m 3.4015,17.4592004 -0.1424,-0.14110003 -0.095,-0.1848 -0.045,-0.2228 m -6.9536,-20.34580037 0.044,0.1865 0.099,0.1428 0.1488,0.0918 0.1908,0.0364 0.2236,-0.0209 0.2448,-0.0771 0.254,-0.1296 m -111.8478,67.6447 0.2504,-0.1754 0.2342,-0.2126 0.2062,-0.239 0.168,-0.2534 0.1212,-0.2552 0.069,-0.2441 0.012,-0.2209 m 135.2152,-48.7235996 -0.2225,-0.239 -0.2191,-0.2735 -0.2091,-0.2996 -0.1925,-0.3166 -0.1702,-0.3241 -0.1427,-0.3216 -0.1109,-0.3094 -0.076,-0.2879 -0.038,-0.2574 m -1.9814,-0.1522 0.042,0.3166 0.077,0.3469 0.1116,0.3715 0.1439,0.3896 0.1738,0.401 0.2006,0.4056 0.2242,0.4032 0.2438,0.394 0.2592,0.378 0.2703,0.3556 0.2766,0.32699997 0.2783,0.2929 m 5.3974,-12.50520037 0.1328,0.1518 0.1234,0.1817 0.1019,0.1939 0.07,0.187 0.032,0.1619 m -7.2642,-6.3293 4e-4,-0.2193 0.039,-0.1745 0.076,-0.1243 0.1117,-0.0704 0.1434,-0.0144 0.1708,0.0421 0.193,0.0974 0.2093,0.1496 0.2193,0.1972 m 7.3319,22.0049004 -0.01,0.1209 -0.05,0.0681 -0.086,0.009 -0.1131,-0.0518 -0.1292,-0.107 m 10.7717,10.6364996 -0.1328,-0.1518 -0.1234,-0.1817 -0.1018,-0.1939 -0.07,-0.187 -0.032,-0.1619 m 7.2643,6.3293 -5e-4,0.2193 -0.039,0.1745 -0.076,0.1243 -0.1117,0.0704 -0.1434,0.0144 -0.1708,-0.0421 -0.193,-0.0973 -0.2093,-0.1496 -0.2193,-0.1973 m -1.3038,-16.4741996 0.2226,0.239 0.2191,0.2735 0.209,0.2996 0.1925,0.3166 0.1703,0.3241 0.1427,0.3216 0.1109,0.3095 0.076,0.2878 0.038,0.2575 m -7.4092,-8.1598 0.01,-0.121 0.05,-0.068 0.086,-0.009 0.1131,0.0517 0.1293,0.107 m -10.5288,7.4382 0.2113,0.1908 0.2022,0.1467 0.1876,0.0986 0.1675,0.0476 0.1428,-0.005 0.1141,-0.0569 0.082,-0.1075 0.048,-0.155 m 8.2354,7.8478996 0.038,0.2575 0.076,0.2878 0.1108,0.3094 0.1428,0.3217 0.1702,0.324 0.1925,0.3167 0.209,0.2996 0.2191,0.2734 0.2226,0.239 m -18.9631,-35.2745 -0.2305,-0.0477 -0.199,0.0166 -0.1636,0.0806 -0.1247,0.1427 -0.083,0.202 -0.04,0.2571 0,0.3068 m -15.592,10.4468004 -0.2645,-0.2245 -0.3052,-0.1919 -0.3398,-0.1556 -0.3674,-0.116 -0.3875,-0.0742 -0.3998,-0.0307 -0.404,0.0134 -0.3998,0.0571 -0.3875,0.0997 -0.3675,0.1403 -0.3398,0.178 m 21.8996,30.6462996 0.3052,-0.2121 0.2646,-0.2419 0.2184,-0.2668 0.1678,-0.2862 0.1138,-0.2998 0.058,-0.3072 10e-5,-0.3086 -0.058,-0.3035 -0.1138,-0.2922 -0.1677,-0.2751 -0.2184,-0.2524 m -126.3849,35.2468 -0.3052,0.2121 -0.2646,0.2419 -0.2184,0.2667 -0.1678,0.2862 -0.1138,0.2998 -0.058,0.3073 -10e-5,0.3085 0.057,0.3035 0.1138,0.2923 0.1677,0.2751 0.2184,0.2523 m 149.4805,-36.1494 0.2826,0.26 0.2742,0.214 0.2609,0.1642 0.2429,0.1113 0.2205,0.0565 0.194,7e-4 0.1642,-0.0551 0.1313,-0.1101 0.096,-0.1629 0.059,-0.2128" /><path
       inkscape:connector-curvature="0"
       id="path264"
       style="fill:none;stroke:#000000;stroke-width:1.41729999;stroke-linecap:round;stroke-linejoin:miter;stroke-miterlimit:10;stroke-opacity:1;stroke-dasharray:none"
       d="m 1846.441,30.124942 -3.9962,-3.946 m 3.9962,3.946 0.036,0.4576 m 0,0 -4.2973,-4.2433 m 0.9756,6.2523 3.3217,-2.009 m -56.0155,-55.7341 -9.0656,5.4829 m 9.0656,-5.4829 0.036,0.4576 m 0,0 -9.0657,5.4829 m 0,0 -0.036,-0.4576 m 18.3955,3.7299 -9.3299,-9.2128 m 9.3299,9.2128 0.036,0.4575 m 0,0 -9.3299,-9.2127 m 0.2642,14.6957004 0.3502,-0.2118004 m 6.9438,-4.1996 1.7717,-1.0716 m -18.3956,-3.7298 9.3299,9.2128004 m -14.6921,-6.4493004 -9.0657,5.4829 m 9.0657,-5.4829 0.036,0.4577 m 0,0 -9.0656,5.4828 m 0,0 -0.036,-0.4576 m 18.3955,3.7299004 -9.3298,-9.2128004 m 9.3298,9.2128004 0.036,0.4576 m 0,0 -9.3299,-9.2127004 m 0.2643,14.6956004 0.3501,-0.2118 m 6.9439,-4.1996 1.7716,-1.0715 m -18.3955,-3.7299004 9.3299,9.2128004 m -14.6922,-6.4493 -9.0657,5.483 m 9.0657,-5.483 0.036,0.4577 m 0,0 -9.0656,5.4828 m 0,0 -0.036,-0.4575 m 18.3955,3.7298 -9.3298,-9.2128 m 9.3298,9.2128 0.036,0.4576 m 0,0 -9.3299,-9.2127 m 0.2642,14.6956 0.3502,-0.2118 m 6.9438,-4.1996 1.7717,-1.0715 m -18.3955,-3.7299 9.3298,9.2128 m -14.6922,-6.44920003 -9.0657,5.48290003 m 9.0657,-5.48290003 0.036,0.45760003 m 0,0 -9.0656,5.4829 m 0,0 -0.036,-0.4576 m 18.3956,3.7298996 -9.3299,-9.21279963 m 9.3299,9.21279963 0.036,0.4575 m 0,0 -9.3299,-9.2126996 m 0.2642,14.6956996 0.3491,-0.2111 m 6.9438,-4.1996 1.7728,-1.0723 m -18.3955,-3.7297996 9.3298,9.2127996 m -14.6922,-6.4492996 -9.0656,5.4828996 m 9.0656,-5.4828996 0.036,0.4576996 m 0,0 -9.0657,5.4828 m 0,0 -0.036,-0.4576 m 18.3955,3.7299 -9.3299,-9.2127996 m 9.3299,9.2127996 0.036,0.4576 m 0,0 -9.3298,-9.2127 m 0.2642,14.6956 0.3466,-0.2097 m 6.9438,-4.1996 1.7752,-1.0736 m -18.3955,-3.7299 9.3299,9.2128 m -14.6922,-6.4493 -9.0657,5.483 m 9.0657,-5.483 0.036,0.4577 m 0,0 -9.0658,5.4828 m 0,0 -0.036,-0.4575 m 18.3956,3.7299 -9.3299,-9.2129 m 9.3299,9.2129 0.036,0.4575 m 0,0 -9.3298,-9.2127 m 0.2641,14.6956 0.349,-0.2111 m 6.9438,-4.1995 1.7729,-1.0723 m -18.3956,-3.7299 9.3299,9.2128 m -16.0174,99.690498 34.8314,-21.0657 m 103.1647,-62.393298 88.6458,-53.6122996 m 0,0 -1.159,-14.6437004 m 1.159,14.6437004 -76.3355,-75.3770004 m 0,0 -1.1589,-14.6437 m 0,0 76.3354,75.377 m -75.1765,-60.7333 -226.6419,137.0713 m 0,0 -1.1588,-14.6437 m 0,0 226.6418,-137.0713 m -225.483,151.715 76.3355,75.376998 M 1881.4356,16.196942 1860.2314,-4.7410576 m 18.7738,22.4079996 2.4304,-1.47 m -21.2042,-20.9379996 -4.0414,2.4442 m -18.0111,-24.2198004 -21.2043,-20.9381 m 17.1064,23.4165 4.0979,-2.4784 m -34.8028,-12.7138 2.6979,2.664 m 10.9006,-10.8883 -13.5985,8.2243 m -98.1003,86.6326 -17.1471,-16.9318 m -13.5985,8.2243 2.6979,2.664 m 11.6792,11.5326 3.2297,3.1891 m -4.0083,-25.61 -13.5985,8.2243 m 206.8692,-22.9553 -21.2043,-20.9379996 m 21.2405,21.3955996 -0.036,-0.4576 m -21.2043,-20.9379996 0.036,0.4576 m -0.036,-0.4576 -4.3093,2.6062 m -17.7431,-24.3818004 -21.2043,-20.938 m 21.2405,21.3956 -0.036,-0.4576 m -21.2043,-20.938 0.036,0.4575 m -0.036,-0.4575 -13.5985,8.2242 m 0,0 0.036,0.4576 m -97.9349,86.3741 -17.3486,-17.1309 m 0,0 0.036,0.4576 m -0.036,-0.4576 -13.5985,8.2243 m 0,0 0.036,0.4576 m 20.8859,44.0007 3.3996,-2.0561 m 33.0787,32.663398 -3.3997,2.056 m 0,0 -33.0786,-32.663298 m -7.6895,-30.1978 -10.178,-10.0502 m 12.1594,10.2024 3.9662,-2.3987 m -15.8406,-9.3266 9.0656,-5.4829 m 1.9814,0.1522 13.7848,13.6117 m -10.6945,4.7767 2.0643,26.0841 m 106.4021,-20.1288 -1.9621,1.1867 m 2.682,0.6569 0.2906,-0.1758 m 0,0 0.1605,0.1586 m -18.7466,-68.3366996 -6.4341,-6.3532004 m -5.5518,3.8368004 -0.108,-1.3646004 m 0,0 3.3996,-2.0561 m 0,0 0.108,1.3646 m -3.3997,2.0561004 3.3997,-2.0561004 m 2.3327,0.4991 6.434,6.3532004 m 0,0 -5.666,3.42689997 m 0,0 -6.4341,-6.35329997 m -0.2678,-0.793 0.2016,-1.0768 m 3.3996,-2.0561004 1.401,0.1076 m 3.0406,11.83200037 5.6661,-3.42669997 m -7.775,-8.0138004 -0.1805,-2.2798 m 11.0233,11.8128004 -0.8762,-0.8652 m -11.0575,-11.0710004 -1.3498,0.5395 m 1.3498,-0.5395 0.1592,2.0117 m -5.0022,3.0253004 -0.1592,-2.0117004 m -2.045,12.1553004 -6.4341,-6.3532 m -5.5519,3.83679997 -0.108,-1.36459997 m 0,0 3.3996,-2.056 m 0,0 0.1081,1.3646 m -3.3997,2.05599997 3.3997,-2.05599997 m 2.3327,0.499 6.4339,6.3533 m 0,0 -5.6659,3.4268 m 0,0 -6.4341,-6.3533 m -0.2678,-0.79300003 0.2015,-1.0768 m 3.3997,-2.05599997 1.401,0.1075 m 3.0406,11.8321 5.666,-3.4268 m -7.7749,-8.0138 -0.1805,-2.2798 m 10.4603,11.257 -0.3132,-0.3093 m -11.0575,-11.0711 -1.3499,0.5396 m 1.3499,-0.5396 0.1592,2.0117 m -5.0022,3.02529997 -0.1592,-2.01169997 m -2.0462,12.1560996 -6.4341,-6.3532996 m -5.5519,3.8368 -0.108,-1.3646 m 0,0 3.3996,-2.056 m 0,0 0.108,1.3646 m -3.3996,2.0561 3.3996,-2.0561 m 2.3327,0.4991 6.4341,6.3531996 m 0,0 -5.6661,3.4268 m 0,0 -6.434,-6.3533 m -0.2679,-0.7928996 0.2016,-1.0769 m 3.3996,-2.056 1.4011,0.1075 m 3.0406,11.8320996 5.666,-3.4267 m -7.775,-8.0137996 -0.1804,-2.2799 m 10.4603,11.2570996 -0.3133,-0.3093 m -11.0574,-11.0711996 -1.3499,0.5396 m 1.3499,-0.5396 0.1592,2.0117 m -5.0023,3.0254 -0.1592,-2.0118 m -2.0474,12.1568996 -6.434,-6.3533 m -5.5519,3.8368 -0.108,-1.3646 m 0,0 3.3996,-2.0561 m 0,0 0.108,1.3646 m -3.3996,2.0561 3.3996,-2.0561 m 2.3327,0.4991 6.434,6.3533 m 0,0 -5.666,3.4267 m 0,0 -6.434,-6.3532 m -0.2679,-0.793 0.2016,-1.0768 m 3.3996,-2.0561 1.401,0.1076 m 3.0406,11.8321 5.6661,-3.4268 m -7.775,-8.0138 -0.1804,-2.2798 m 10.4603,11.257 -0.3133,-0.3093 m -11.0575,-11.0712 -1.3498,0.5396 m 1.3498,-0.5396 0.1592,2.0118 m -5.0022,3.0253 -0.1592,-2.0117 m 15.5341,78.6635 -1.9633,1.1874 m 1.2727,1.5092 1.6998,-1.028 m 0,0 0.1606,0.1585 m -1.6998,1.0281 -0.1606,-0.1586 m -16.8862,-69.2062 -6.434,-6.3532 m -5.5519,3.8368 -0.108,-1.3646 m 0,0 3.3996,-2.056 m 0,0 0.108,1.3646 m -3.3996,2.056 3.3996,-2.056 m 2.3327,0.499 6.4341,6.3533 m 0,0 -5.6661,3.4268 m 0,0 -6.4341,-6.3533 m -0.2678,-0.793 0.2016,-1.0768 m 3.3996,-2.056 1.401,0.1075 m 3.0407,11.8321 5.666,-3.4268 m -7.775,-8.0138 -0.1804,-2.2798 m 11.0232,11.8129 -0.8762,-0.8652 m -11.0574,-11.0711 -1.3499,0.5396 m 1.3499,-0.5396 0.1591,2.0117 m -5.0022,3.0253 -0.1592,-2.0117 m 72.3207,-42.5859 3.3997,-2.0561 m 3.1006,10.2791004 -6.434,-6.3533004 m -0.2679,-0.7929 0.2016,-1.0769 m 25.2302,88.7976 0.7114,-0.4303 m 1.0105,1.6679 -0.2906,0.1757 m 0.4511,-0.0172 -0.1605,-0.1585 m -60.5343,34.330898 1.9563,-1.1832 m 1.0163,1.6643 -1.6998,1.0281 m 0,0 0.161,0.159 m 1.6999,-1.028 -0.1611,-0.1591 m 103.3312,-70.864898 0.9118,0.6614 m -110.8644,85.087198 0.7203,-1.5186 m 88.0504,-53.252198 5.0854,-1.9927 m -106.826,44.326998 12.9699,12.4365 m 81.2159,-69.399298 12.6402,12.6358 m -7.0329,-16.0038 -5.109,2.0068 m -7.4821,-14.5566 12.5911,12.5498 m 8.1383,-19.1615 0,-0.0204 m 5.0338,-45.3895 0.3928,0.4142 0.3698,0.4474 0.3415,0.4807 0.3078,0.5131 0.2685,0.5445 0.2236,0.5739 0.1732,0.6006 0.1178,0.6239 0.058,0.6432 -0.01,0.6577004 -0.073,0.6667 -0.1417,0.67 -0.211,0.6671 m -10.1506,-10.6757004 0.9796,0.0492 0.9555,0.1126 0.9215,0.1723 0.8793,0.2271 0.8303,0.2762 0.776,0.3192 0.7181,0.3557 0.6579,0.3856 0.5972,0.4091 0.5366,0.4268 0.4777,0.4389 m -160.3091,67.8987 0.2018,0.1596 0.2599,0.1291 0.3061,0.0826 0.3305,0.0254 0.3279,-0.034 0.3002,-0.086 0.255,-0.1245 m -12.6564,-13.5217 0.025,-0.2776 0.1152,-0.265 0.1889,-0.2286 0.2358,-0.1781 m 0.2173,2.7457 -0.1921,0.1387 -0.1655,0.1724 -0.1243,0.2004 -0.071,0.2184 -0.012,0.223 0.047,0.2136 0.097,0.1925 0.1355,0.1639 m 11.332,-6.8536 -0.2018,-0.1596 -0.2599,-0.1291 -0.3061,-0.0826 -0.3305,-0.0254 -0.3279,0.034 -0.3002,0.086 -0.255,0.1245 m 5.0717,18.5406 -10e-4,-0.3452 0.051,-0.3866 0.1088,-0.4225 0.1691,-0.45 0.2288,-0.4668 0.2846,-0.4709 0.3331,-0.4618 0.3716,-0.4397 0.3983,-0.4066 m 4.9008,30.5072 -0.3138,-0.3481 -0.3223,-0.4416 -0.2953,-0.5007 -0.2338,-0.5069 -0.1507,-0.4588 -0.065,-0.373 m -3.3996,2.0561 0.065,0.373 0.1507,0.4588 0.2338,0.5069 0.2954,0.5006 0.3223,0.4417 0.3138,0.3481 m 37.594,30.904598 -0.081,0.1165 -0.1179,0.0637 -0.1509,0.006 -0.1765,-0.0521 -0.1929,-0.1045 -0.1995,-0.1476 -0.1972,-0.1791 m -3.3997,2.056 0.1838,0.168 0.1862,0.1412 0.1817,0.105 0.1691,0.0607 0.1488,0.0112 0.122,-0.0397 m 68.9889,-54.680898 -0.3706,-0.5302 -0.342,-0.5106 m 2.8398,0.0328 0.1188,0.3412 0.1479,0.3279 0.1731,0.3062 0.1943,0.2761 0.2113,0.2377 m -1.8227,0.9041 -0.3945,-0.4308 -0.3933,-0.4738 -0.3621,-0.4806 m -13.2368,-64.7560996 -0.5683,-0.8171 -0.5949,-0.7746 -0.6076,-0.7133 -0.6059,-0.6359 m -6.4341,-6.3532004 -0.178,-0.1758 -0.1733,-0.1711 m -0.3999,2.2352 0.2669,0.0411 0.254,0.082 0.2256,0.1195 0.1852,0.1489 m -5.6661,3.4268004 -0.1407,-0.172 -0.095,-0.1947 -0.043,-0.2069 m 8.0547,8.58729997 -0.4311,-0.6104 -0.4533,-0.5614 -0.4565,-0.4886 m 5.666,-3.42689997 0.4565,0.4887 0.4534,0.5615 0.4311,0.6104 m -4.4044,5.1421 -0.6458,-0.8321 -0.6159,-0.88330003 m 5.6661,-3.42669997 0.5671,0.8167 0.5939,0.7748 0.6068,0.71399997 m 0.4238,-1.65149997 -0.4548,-0.4867 -0.4518,-0.559 -0.4297,-0.6078 m -9.1621,-9.6410004 -0.1509,0.0674 -0.1197,0.0487 -0.1001,0.0374 -0.092,0.0333 -0.096,0.0367 m -4.6706,18.1215004 -0.5683,-0.817 -0.5949,-0.7747 -0.6075,-0.7133 -0.6059,-0.6359 m -6.4341,-6.3532 -0.178,-0.1758 -0.1733,-0.1711 m -0.3999,2.2352 0.2669,0.0411 0.2539,0.0821 0.2256,0.1194 0.1853,0.1489 m -5.6661,3.4268 -0.1408,-0.172 -0.096,-0.1946 -0.043,-0.20690003 m 8.0547,8.58730003 -0.4311,-0.6104 -0.4533,-0.5614 -0.4565,-0.4887 m 5.6659,-3.4268 0.4566,0.4887 0.4534,0.5614 0.431,0.6104 m -4.4044,5.1420996 -0.6458,-0.8321 -0.6158,-0.8831996 m 5.666,-3.4268 0.6159,0.8832 0.6458,0.8321 m 0.93,-1.0612 -0.4549,-0.4868 -0.4518,-0.559 -0.4297,-0.6078 m -9.162,-9.641 -0.151,0.0674 -0.1197,0.0488 -0.1001,0.0373 -0.092,0.0333 -0.096,0.0367 m -4.6718,18.1221996 -0.5683,-0.817 -0.5949,-0.7747 -0.6076,-0.7133 -0.6058,-0.6358 m -6.4341,-6.3532996 -0.178,-0.1758 -0.1733,-0.1711 m -0.3999,2.2352 0.2669,0.0411 0.2539,0.0821 0.2256,0.1194 0.1852,0.149 m -5.666,3.4266996 -0.1408,-0.172 -0.095,-0.1945996 -0.043,-0.2069 m 8.0547,8.5872996 -0.4311,-0.6104 -0.4534,-0.5614 -0.4565,-0.4887 m 5.6661,-3.4268 0.4565,0.4887 0.4533,0.5614 0.4311,0.6105 m -4.4044,5.142 -1.2616,-1.7153 m 5.666,-3.4267 0.6158,0.8832 0.6459,0.832 m 0.9299,-1.0611 -0.4548,-0.4868 -0.4518,-0.5591 -0.4297,-0.6078 m -9.162,-9.6409996 -0.151,0.0675 -0.1197,0.0487 -0.1001,0.0373 -0.092,0.0334 -0.096,0.0366 m -4.673,18.1229996 -0.5683,-0.8171 -0.5949,-0.7746 -0.6076,-0.7133 -0.6059,-0.6358 m -6.434,-6.3533 -0.178,-0.1758 -0.1734,-0.1712 m -0.3999,2.2353 0.267,0.0411 0.2539,0.0821 0.2256,0.1194 0.1852,0.1489 m -5.666,3.4268 -0.1408,-0.172 -0.096,-0.1947 -0.043,-0.2069 m 8.0547,8.5874 -0.431,-0.6104 -0.4534,-0.5615 -0.4565,-0.4887 m 5.666,-3.4267 0.4566,0.4887 0.4533,0.5614 0.4311,0.6104 m -4.4043,5.1421 -0.6459,-0.8321 -0.6159,-0.8832 m 5.6661,-3.4268 0.6158,0.8832 0.6459,0.8321 m 0.9299,-1.0612 -0.4548,-0.4868 -0.4518,-0.559 -0.4297,-0.6078 m -9.1621,-9.6411 -0.1509,0.0675 -0.1197,0.0487 -0.1001,0.0374 -0.092,0.0333 -0.096,0.0366 m 8.5686,82.8763 -0.3706,-0.5302 -0.3419,-0.5105"
       sodipodi:nodetypes="ccccccccccccccccccccccccccccccccccccccccccccccccccccccccccccccccccccccccccccccccccccccccccccccccccccccccccccccccccccccccccccccccccccccccccccccccccccccccccccccccccccccccccccccccccccccccccccccccccccccccccccccccccccccccccccccccccccccccccccccccccccccccccccccccccccccccccccccccccccccccccccccccccccccccccccccccccccccccccccccccccccccccccccccccccccccccccccccccccccccccccccccccccccccccccccccccccccccccccccccccccccccccccccccccccccccccccccccccccccccccccccccccccccccccccccccccccccccccccccccccccccccccccccccccccccccccccccccccccccccccccccccccccccccccccccccccccccccccccccccccccccccccccccccccccccccccccccccccccccccccccccccccccccccccccccccccccccccccccccccccccccccccccccccccccccccccccccccccccccccccccccccccccccccccc" /><path
       inkscape:connector-curvature="0"
       id="path272"
       style="fill:none;stroke:#000000;stroke-width:1.41729999;stroke-linecap:round;stroke-linejoin:miter;stroke-miterlimit:10;stroke-opacity:1;stroke-dasharray:none"
       d="m 1826.7707,63.696442 -0.1605,-0.1586 m -2.9726,-0.4812 1.9622,-1.1867 m 1.0104,1.6679 -1.6999,1.028 m 0,0 0.1606,0.1586 m 17.6314,-35.122 -2.2455,-2.2173 m -1.3198,0.7985 3.7457,3.6987 m -0.1804,-2.2799 0.1804,2.2799 m 0.066,1.8697 -3.2702,1.9778 m 3.4717,-3.0546 -0.2015,1.0768 m 0.043,-3.4529 0.1707,2.1567 m -27.324,20.4455 0.1605,0.1585 m -1.1709,-1.8265 -1.9622,1.1868 m 1.2727,1.5092 1.6999,-1.028 m -1.5392,1.1866 -0.1607,-0.1586 m -23.1398,-73.2796 6.434,6.3533 m 4.4088,3.1798004 -0.8762,-0.8652004 m -3.713,-4.5944 -6.4341,-6.3533 m 0.1805,2.2798 -0.1805,-2.2798 m -2.1522,1.7807 1.401,0.1076 m 7.3657,6.7448 -5.666,3.4268004 m -1.8589,-12.1833004 -1.3498,0.5396 m 0,0 0.108,1.3645 m 1.2418,-1.9041 0.1592,2.0117 m -4.9087,0.5839 3.3997,-2.056 m -3.2917,3.4206 -0.108,-1.3646 m -0.093,2.4415 -0.1592,-2.0118 m 0.1473,2.2312 -0.1706,-2.1567 m 8.2253,10.7440004 5.6661,-3.4268004 m 65.5978,17.7719004 2.0642,26.0840996 m -3.6788,-27.6783996 1.6146,1.5943 m -9.5318,-9.412 -9.1837,-9.0685004 m -7.473,-7.3791 -1.8012,-1.7786 m -7.6335,-7.5377 7.6335,7.5377 m -7.6335,-7.5377 2.0642,26.0840004 m 1.3809,2.62919997 33.0787,32.66329963 m -3.2977,-8.5716 -0.051,-0.6407 m -8.4072,-6.4454 7.2942,7.2027 m -9.0409,-14.4537996 0.3658,4.6218996 m -5.3707,-10.4075996 4.0843,4.033 m -6.432,-1.2468 -0.013,-0.1653 m -8.4448,-6.92080003 7.2943,7.20260003 m -8.7259,-10.4724 0.051,0.6406 m -1.2603,-15.9250004 0.051,0.6407 m 1.5161,-0.3592 -0.4032,-0.398 m -5.6878,21.0577004 3.3994,-2.05590003 m -1.3809,-2.62919997 -3.3996,2.05609997 m 37.8592,33.23639963 -3.3994,2.056 m -36.524,-61.3764 -0.204,-2.5776 m 2.2682,28.66160037 -2.0642,-26.08400037 m 2.2698,-4.0738 -3.9662,2.3987 m 4.2513,-3.9216 -10.1781,-10.0503 m -1.9814,-0.1521 -9.0656,5.4828 m -0.2851,1.5229 13.7845,13.6114 m -4.6511,-23.3628 0.2173,2.7457 m 1.9814,0.1521 -0.2173,-2.7457 m -11.047,5.3307 9.0656,-5.4828 m -8.8483,8.2285 -0.2173,-2.7457 m 11.047,-5.3307 10.1781,10.0503 m 0,0 0.2173,2.7457 m -21.7899,-3.7703 -0.2173,-2.7456 m 28.5854,19.7679 -1.1192,0.6769 m 32.9011,51.4346 -3.3996,2.056 m -0.8897,-11.074 -0.7401,0.4476 m -32.8981,-54.222 7.6335,7.5377 m 24.7882,46.3011 1.1659,-0.7051 m 5.538,1.4001 -1.7737,-1.7514 m 12.8207,-3.5793 -9.0657,5.4829 m -0.8273,-17.0559996 10.178,10.0501996 m -12.1594,-10.2023996 -2.0589,1.2452 m -2.5089,-5.416 1.8928,1.869 m 2.4577,-0.4439 0.2173,2.7457 m 1.7641,-2.5935 0.2173,2.7457 m -4.264,-1.6488 2.0653,-1.2491 m 12.3767,12.9480996 -0.2172,-2.7457 m 0,0 -10.1781,-10.0501996 m 10.4578,10.6237996 0.2173,2.7457 m -183.7041,33.3822 1.0623,1.0489 m 1.002,25.0352 -2.0643,-26.0841 m -1.3353,28.1401 3.3996,-2.056 m -2.0643,-26.0841 -0.1422,-1.798 m -8.329,-14.6865 -0.2173,-2.7457 m 1.9814,0.1522 0.2172,2.7457 m -11.2643,2.585 0.2173,2.7457 m 8.8484,-8.2286 -9.0657,5.4829 m 26.6385,10.065 -15.5914,-15.3957 m -11.3945,9.0257 -0.2173,-2.7457 m 55.8344,74.620898 -3.3996,2.056 m 41.1758,-123.5978976 -0.1707,-2.1567 m -43.0081,28.2709996 -0.1707,-2.1567 m 95.2211,66.7246 -0.131,-5.9279 m -7.6917,2.4219 3.944,3.8945 m -4.3061,-8.4706 0.3621,4.5761 m -13.6784,-17.7252 13.3163,13.1491 m -13.0266,-9.4882 -0.2897,-3.6609 m -3.5819,0.6817 3.0958,3.0569 m -12.8379,-51.4193 5.1433,39.6025 m -1.2267,-37.6812 -2.4838,-2.2963 m 2.2353,0.0984 0.1907,1.4673 m -7.5538,-12.5234996 7.3631,11.0561996 m -9.047,-12.6129996 1.6839,1.5568 m 4.5933,46.7437996 -6.2772,-48.3005996 m -1.4183,44.9202996 3.8168,3.7688 m -3.4547,0.8073 -0.3621,-4.5761 m 0.3621,4.5761 57.6757,56.951598 m -0.3621,-4.5762 0.3621,4.5762 m -0.3621,-4.5762 -7.2095,-7.118898 m -4.8814,-21.3555 0.2784,12.5917 m -96.0422,-5.9257 50.5411,-30.567 m 3.7419,84.168398 -54.283,-53.601398 m 93.492,29.887998 -39.209,23.7134 m 42.6017,-20.3633 -3.3927,-3.3501 m 14.7248,-3.5034 -11.3321,6.8535 m -46.7057,-68.381198 -50.5411,30.5669 m 0,0 0.3621,4.5762 m 55.3727,-30.2497 2.5018,-1.5131 m -6.2772,-48.3005996 -50.5412,30.5668996 m 0,0 5.3091,40.851 m 64.2247,-7.1867 -0.5003,0.3026 m -2.439,-2.361 2.6496,-1.6025 m 18.9995,22.7441 2.5016,-1.5129 m -34.7664,-68.4559 1.3741,-0.831 m -76.0475,13.4216 -0.1707,-2.1567 m 9.3873,78.459198 -5.5599,-2.8896 m 5.5599,2.8896 19.1513,-11.582598 m 53.6169,-32.4271 26.6143,-16.0961 m 0.5755,-6.6002 -0.5755,6.6002 m -104.9424,57.216198 20.7838,-12.569798 m 55.4216,-33.5186 29.3125,-17.728 m -0.5755,6.6002 8.0576,7.9565 m 5.1677,-2.0657 -5.1677,2.0657 m -7.4821,-14.5567 12.6498,12.491 m -11.7693,-12.7467 -3.4105,-43.0942996 m -1.9814,-0.1522 3.4105,43.0942996 m 0,0 -28.3462,17.1436 m -55.9616,33.8452 -19.6075,11.8584 m 117.347,-51.3885 -11.4503,-11.3065 m -74.3922,84.054198 -12.7226,-12.5628 m 100.7729,-40.689398 -21.377,12.9286 m -53.1893,32.168498 -13.484,8.1551 m 75.3277,-65.815098 12.7226,12.5629 m -7.0565,-15.9896 -5.6661,3.4267 m -93.7164,56.679098 -8.0576,-7.9565 m 13.7237,4.5297 -5.6661,3.4268 m 84.609,-62.785198 -12.4653,7.5389 m 20.947,0.8363 -8.4817,-8.3752 m -3.9836,15.9142 12.4653,-7.539 m -20.947,-0.8363 8.4817,8.3753 m -10.4081,-7.2102 -4.931,2.9823 m 13.4127,5.393 -8.4817,-8.3753 m 5.9602,9.9003 2.5215,-1.525 m -66.8432,26.9214 -11.6709,7.0584 m 8.4817,8.375198 11.6709,-7.0584 m -20.1526,-1.316798 8.4817,8.375198 m 82.7306,-32.883598 12.4653,-7.5389 m -20.947,-0.8363 8.4817,8.3752 m 3.9836,-15.9141 -12.4653,7.5389 m 20.947,0.8363 -8.4817,-8.3752 m -11.0432,20.1837 5.1331,-3.1045 m -8.4816,-8.3752 -2.5215,1.525 m 11.0031,6.8502 -8.4816,-8.3752 m -61.5507,50.730298 11.6709,-7.0585 m -20.1526,-1.3168 8.4817,8.3753 m 3.1892,-15.4337 -11.6709,7.0584 m -27.4829,-54.227898 19.5685,-11.8349 m 55.7684,-33.7283 28.5783,-17.2839996 m -100.5043,105.9414996 -3.4104,-43.0943 m 117.7889,-45.8037 2.9685,37.5095 m -14.8608,-54.4007996 2.0037,1.9784 m -19.2304,60.7877996 5.1325,-2.3348 m 6.3459,-3.838 -6.3459,3.838 m 6.3459,-3.838 0.9869,-1.3661 m 2.9147,5.2187 -3.9016,-3.8526 m 3.9016,3.8526 5.567,3.1565 m 5.7935,-4.3348 -5.1678,2.0657 m 10.8338,-5.4924 -5.666,3.4267 m -17.7064,5.0163 -0.5524,6.8575 m -3.3492,-10.7101 3.9016,3.8526 m 25.2612,9.6123 5.1678,-2.0657 m -12.7226,-12.5629 12.7226,12.5629 m -30.429,-7.5466 6.3459,-3.838 m 13.9932,-43.3034 3.0325,38.3195 m -35.319,9.8353 -3.555,2.1501 m 3.555,-2.1501 0.9869,-1.3661 m 2.9147,5.2187 -3.9016,-3.8526 m 3.9016,3.8526 5.567,3.1566 m 2.5643,-8.4795 5.666,-3.4267"
       sodipodi:nodetypes="cccccccccccccccccccccccccccccccccccccccccccccccccccccccccccccccccccccccccccccccccccccccccccccccccccccccccccccccccccccccccccccccccccccccccccccccccccccccccccccccccccccccccccccccccccccccccccccccccccccccccccccccccccccccccccccccccccccccccccccccccccccccccccccccccccccccccccccccccccccccccccccccccccccccccccccccccccccccccccccccccccccccccccccccccccccccccccccccccccccccccccccccccccc" /></g></svg>