<?xml version="1.0" encoding="UTF-8" standalone="no"?>
<!-- Created with Inkscape (http://www.inkscape.org/) -->

<svg
   xmlns:dc="http://purl.org/dc/elements/1.1/"
   xmlns:cc="http://creativecommons.org/ns#"
   xmlns:rdf="http://www.w3.org/1999/02/22-rdf-syntax-ns#"
   xmlns:svg="http://www.w3.org/2000/svg"
   xmlns="http://www.w3.org/2000/svg"
   xmlns:sodipodi="http://sodipodi.sourceforge.net/DTD/sodipodi-0.dtd"
   xmlns:inkscape="http://www.inkscape.org/namespaces/inkscape"
   id="svg2"
   version="1.1"
   inkscape:version="0.48.5 r10040"
   width="383.55859"
   height="319.80685"
   xml:space="preserve"
   sodipodi:docname="1522XXXX601.PDF"><metadata
     id="metadata8"><rdf:RDF><cc:Work
         rdf:about=""><dc:format>image/svg+xml</dc:format><dc:type
           rdf:resource="http://purl.org/dc/dcmitype/StillImage" /><dc:title></dc:title></cc:Work></rdf:RDF></metadata><defs
     id="defs6" /><sodipodi:namedview
     pagecolor="#ffffff"
     bordercolor="#666666"
     borderopacity="1"
     objecttolerance="10"
     gridtolerance="10"
     guidetolerance="10"
     inkscape:pageopacity="0"
     inkscape:pageshadow="2"
     inkscape:window-width="1920"
     inkscape:window-height="1023"
     id="namedview4"
     showgrid="false"
     fit-margin-top="0"
     fit-margin-left="0"
     fit-margin-right="0"
     fit-margin-bottom="0"
     inkscape:zoom="0.44851463"
     inkscape:cx="409.20074"
     inkscape:cy="241.3311"
     inkscape:window-x="0"
     inkscape:window-y="0"
     inkscape:window-maximized="1"
     inkscape:current-layer="g10" /><g
     id="g10"
     inkscape:groupmode="layer"
     inkscape:label="1522XXXX601"
     transform="matrix(1.25,0,0,-1.25,-401.51955,379.14106)"><path
       inkscape:connector-curvature="0"
       id="path406"
       style="fill:none;stroke:#000000;stroke-width:0.7087;stroke-linecap:round;stroke-linejoin:miter;stroke-miterlimit:10;stroke-opacity:1;stroke-dasharray:none"
       d="m 545.1774,148.439 0.2063,0.1818 0.1931,0.1321 0.1738,0.0784 0.1494,0.0223 0.1204,-0.0345 0.0876,-0.0902 0.0524,-0.1433 0.0155,-0.1918 -0.0219,-0.2347 m -9.3461,-9.0807 0.0587,0.2704 0.0935,0.2978 0.1257,0.3162 0.1539,0.325 0.1776,0.324 0.1957,0.313 0.2081,0.2927 0.2139,0.2633 0.2134,0.226 m -1.2509,-4.0006 -0.137,0.0197 -0.101,0.083 -0.0617,0.1437 -0.0202,0.1992 0.0221,0.248 m 0.3319,-0.6933 -0.0167,5e-4 -0.0174,-8e-4 m -2.1028,-13.1844 0.0234,0.0389 0.0231,0.0391 m -0.7155,-1.711 0.0635,0.2883 0.1028,0.3187 0.1385,0.3381 0.1695,0.346 0.1947,0.3419 m 0.1994,-2.5915 -0.2064,-0.1818 -0.193,-0.1321 -0.1738,-0.0784 -0.1494,-0.0223 -0.1203,0.0345 -0.0878,0.0903 -0.0524,0.1432 -0.0154,0.1918 0.0219,0.2347 m -3.9423,19.7511 0.0587,0.2703 0.0935,0.2978 0.1257,0.3163 0.154,0.325 0.1775,0.324 0.1958,0.313 0.208,0.2927 0.2139,0.2633 0.2134,0.226 m -4.0811,-33.7968 0.376,0.0544 0.3399,0.113 0.2982,0.1698 0.2514,0.2236 0.2004,0.2738 0.146,0.3192 0.0892,0.3594 m -5.0786,0.4606 -0.2227,0.1575 -0.1777,0.1849 -0.1251,0.2041 -0.0668,0.2144 -0.006,0.2154 0.0555,0.207 0.1146,0.1894 0.1684,0.1637 0.215,0.1307 0.2521,0.0921 0.2783,0.0494 0.2923,0.005 0.2934,-0.0404 0.2819,-0.0837 0.2579,-0.1234 m 2.7837,-5.3878 0.1503,0.1911 0.0849,0.2154 0.0151,0.2289 -0.0555,0.2309 -0.1231,0.2214 -0.1847,0.2006 -0.237,0.1699 m -11.2798,-10.9594 0.2774,-0.1307 0.3039,-0.0849 0.3151,-0.0348 0.3106,0.017 0.2904,0.068 0.2558,0.1155 0.2083,0.1573 m -11.5575,6.7542 -0.1503,-0.1912 -0.0848,-0.2154 -0.0151,-0.2289 0.0554,-0.2309 0.1232,-0.2213 0.1847,-0.2007 0.237,-0.1699 m 10.7435,-8.2042 -0.2083,-0.1573 -0.2557,-0.1155 -0.2905,-0.068 -0.3106,-0.017 -0.3151,0.0348 -0.3039,0.0849 -0.2773,0.1307 m -9.246,5.4033 -0.2283,0.1624 -0.1806,0.191 -0.1245,0.2109 -0.0626,0.2209 0.002,0.2209 m 21.7136,3.544 -0.0819,-0.2402 -0.162,-0.212 m 8.3986,13.3153 -0.101,-0.3925 -0.1692,-0.3434 -0.2341,-0.2875 m 27.0552,56.7915 0.2055,0.1812 0.1924,0.1318 0.1733,0.0787 0.1491,0.023 0.1205,-0.0333 m 2.0336,-12.5276 0.2758,0.0462 0.2887,0.002 0.2894,-0.0414 0.2777,-0.0834 0.2542,-0.122 m 9.246,-5.4033 0.237,-0.1699 0.1847,-0.2007 0.1231,-0.2213 0.0555,-0.2309 -0.0152,-0.2289 -0.0848,-0.2154 -0.1503,-0.1911 m -9.6683,-9.3939 -0.2083,-0.1572 -0.2558,-0.1155 -0.2904,-0.068 -0.3106,-0.017 -0.3151,0.0348 -0.3039,0.0849 -0.2774,0.1306 m -9.9448,-9.2966 -0.2941,-0.2257 -0.3481,-0.1592 -0.3952,-0.0897 m 8.793,8.5433 -0.101,-0.3925 -0.1693,-0.3434 -0.234,-0.2874 m 2.2297,-0.6571 0.2773,-0.1307 0.3039,-0.0848 0.3151,-0.0348 0.3106,0.017 0.2905,0.0679 0.2557,0.1156 0.2083,0.1572 m 9.6684,9.3938 0.162,0.2121 0.0818,0.2401 m -120.5359,-10.9837 -0.1691,-0.2256 -0.0789,-0.2563 0.0168,-0.2695 m 5.1017,-2.9814 0.3505,0.0548 0.3098,0.1213 0.2479,0.1796 m 9.3629,7.9649 -0.3285,-0.34 -0.3311,-0.3839 -0.3285,-0.4218 -0.3207,-0.4529 m 0,0 -0.4547,-0.6483 -0.4649,-0.6145 -0.4703,-0.5744 -0.4708,-0.5285 -0.4667,-0.4771 m 0.3852,2.4148 0.3297,0.3413 0.3323,0.3855 0.3296,0.4236 0.3216,0.4549 m 0,0 0.4761,0.6785 0.487,0.6413 0.4925,0.5969 0.4926,0.546 m -9.7584,-12.4211 -0.1861,-0.144 -0.2259,-0.1103 m 2.4435,13.5898 -0.3216,-0.4549 -0.3296,-0.4236 -0.3324,-0.3855 -0.3296,-0.3413 m 3.2614,4.068 -0.4926,-0.546 -0.4925,-0.5969 -0.487,-0.6413 -0.4761,-0.6785 m 30.5713,71.3786 0.3685,0.3404 0.3586,0.2962 0.3459,0.2495 0.3301,0.2005 0.3116,0.1499 0.2903,0.0979 0.2666,0.0453 0.2406,-0.008 0.2127,-0.0609 0.1827,-0.1135 0.1514,-0.1651 0.1187,-0.2152 0.085,-0.2635 0.0505,-0.3097 0.0157,-0.353 -0.0193,-0.3935 -0.0542,-0.4305 m 36.2565,35.2268 0.0885,0.464 0.1221,0.4933 0.1547,0.5186 0.186,0.5394 0.2156,0.5557 0.2435,0.567 0.2692,0.5737 0.2926,0.5754 0.3136,0.5722 0.3319,0.5642 0.3473,0.5513 0.3599,0.5337 0.3692,0.5116 0.3755,0.485 0.3785,0.4545 0.3785,0.4199 0.375,0.3818 m -12.0855,-11.7423 0.3684,0.3405 0.3587,0.2962 0.3458,0.2494 0.3302,0.2006 0.3115,0.1498 0.2903,0.098 0.2667,0.0452 0.2406,-0.008 0.2126,-0.061 0.1828,-0.1135 0.1514,-0.165 0.1187,-0.2153 0.0849,-0.2635 0.0506,-0.3097 0.0156,-0.353 -0.0193,-0.3935 -0.0542,-0.4306 m -7.1564,-3.6763 0.0546,0.2353 0.0923,0.2628 0.1252,0.2771 0.1521,0.2775 0.1712,0.2639 0.1817,0.2371 0.1832,0.1985 m -22.0033,-25.4744 0.0886,0.4639 0.1221,0.4934 0.1547,0.5186 0.186,0.5394 0.2156,0.5556 0.2434,0.567 0.2692,0.5737 0.2927,0.5754 0.3136,0.5723 0.3319,0.5641 0.3473,0.5513 0.3598,0.5337 0.3693,0.5116 0.3755,0.4851 0.3785,0.4544 0.3784,0.4199 0.375,0.3818 m -12.0412,-51.124 -0.222,-0.1843 -0.209,-0.1392 -0.192,-0.0912 -0.1709,-0.0414 -0.1465,0.009 -0.1189,0.0597 -0.089,0.1091 -0.0574,0.1561 -0.0244,0.2 0.009,0.2398 0.0422,0.2747 m -107.9495,-9.2767 0.2773,-0.1306 0.3039,-0.0849 0.3151,-0.0348 0.3106,0.017 0.2905,0.068 0.2557,0.1155 0.2083,0.1573 m 4.5814,16.7997 0.2579,-0.1233 0.2818,-0.0837 0.2935,-0.0405 0.2922,0.005 0.2783,0.0494 0.2522,0.0921 0.215,0.1307 0.1684,0.1636 0.1145,0.1895 0.0556,0.2069 -0.006,0.2154 -0.0669,0.2145 -0.125,0.2041 -0.1778,0.1848 -0.2226,0.1576 m 121.2894,-54.1871 -0.2083,-0.1572 -0.2557,-0.1155 -0.2905,-0.068 -0.3106,-0.017 -0.3151,0.0348 -0.3038,0.0849 -0.2774,0.1306 m 17.6068,4.2278 0.0604,0.2919 0.092,0.3178 0.1216,0.3373 0.149,0.3498 0.173,0.3553 0.1938,0.3536 0.2105,0.3446 0.2229,0.3286 0.2309,0.306 0.234,0.2771 0.2325,0.2426 m 30.6165,29.7471 0.2417,0.2157 0.2289,0.1655 0.2106,0.1115 0.1876,0.0547 0.1601,-0.003 m -48.2777,-54.3428 0.0634,0.1988 0.1182,0.1549 0.167,0.1034 0.2075,0.0465 0.2376,-0.0125 0.2557,-0.0711 0.261,-0.126 m -113.9564,66.5964 0.2533,-0.1746 0.2328,-0.2145 0.2007,-0.2436 0.1585,-0.2604 0.1084,-0.2643 0.0528,-0.2548 -0.005,-0.2327 m -3.1752,8.2144 -0.2533,0.1746 -0.2328,0.2144 -0.2007,0.2436 -0.1585,0.2604 -0.1084,0.2643 -0.0528,0.2549 0.005,0.2326 m 122.1622,-71.3918 -0.0633,-0.1988 -0.1182,-0.155 -0.167,-0.1033 -0.2075,-0.0465 -0.2376,0.0125 -0.2557,0.0711 -0.261,0.126 m 21.129,12.4398 0.0587,0.2704 0.0935,0.2978 0.1257,0.3162 0.1539,0.325 0.1776,0.324 0.1957,0.3131 0.2081,0.2926 0.2139,0.2633 0.2134,0.226 m -1.0011,1.6448 -0.2662,-0.2761 -0.2683,-0.313 -0.2658,-0.3443 -0.2586,-0.3698 -0.2472,-0.389 -0.2314,-0.4015 -0.2118,-0.4071 -0.1884,-0.4058 -0.1619,-0.3976 -0.1325,-0.3824 -0.1011,-0.3609 -0.0676,-0.3331 m 6.4567,-8.6322 -0.0436,-0.1689 -0.0788,-0.1907 -0.1062,-0.1939 -0.1232,-0.1779 -0.1283,-0.1447 m -5.3579,-5.2058 -0.2064,-0.1818 -0.193,-0.1321 -0.1738,-0.0784 -0.1494,-0.0222 -0.1203,0.0345 -0.0878,0.0902 -0.0524,0.1432 -0.0154,0.1919 0.0219,0.2347 m 9.1177,22.3756 0.1207,0.0973 0.1013,0.0402 0.072,-0.0206 0.0357,-0.0795 -0.004,-0.1307 m 9.4267,9.159 0.0436,0.169 0.0788,0.1907 0.1062,0.1938 0.1233,0.178 0.1282,0.1446 m 5.3579,5.2058 0.2064,0.1818 0.193,0.1321 0.1739,0.0784 0.1493,0.0223 0.1204,-0.0345 0.0877,-0.0903 0.0524,-0.1432 0.0155,-0.1919 -0.0219,-0.2346 m -2.3194,-14.5416 -0.0586,-0.2703 -0.0936,-0.2978 -0.1256,-0.3163 -0.154,-0.325 -0.1776,-0.324 -0.1957,-0.313 -0.208,-0.2927 -0.214,-0.2633 -0.2133,-0.226 m -5.3579,-5.2057 -0.1207,-0.0972 -0.1014,-0.0403 -0.072,0.0206 -0.0357,0.0796 0.004,0.1306 m -7.1412,9.2037 -0.052,0.1442 -0.0875,0.0911 -0.1203,0.0351 -0.1495,-0.0219 -0.1741,-0.0782 -0.1934,-0.1323 -0.2067,-0.1821 m 10.2323,9.9418 -0.2134,-0.226 -0.2139,-0.2633 -0.208,-0.2926 -0.1958,-0.3131 -0.1775,-0.324 -0.154,-0.325 -0.1256,-0.3162 -0.0936,-0.2978 -0.0587,-0.2704 m -18.8699,-31.4413 -0.0333,-0.3023 0.002,-0.2629 0.038,-0.2188 0.073,-0.1711 0.1067,-0.1204 0.1386,-0.0674 0.168,-0.0134 0.1945,0.0408 m -120.8465,69.6543 -0.3126,0.2082 -0.2734,0.2358 -0.2286,0.2587 -0.1793,0.2762 -0.1262,0.2882 -0.0707,0.2942 -0.0136,0.2943 0.0438,0.2885 0.1002,0.2766 0.1545,0.2593 0.2058,0.2365 m 99.0473,-57.8834 -0.2528,-0.2091 -0.2948,-0.1773 -0.3307,-0.1419 -0.3598,-0.1037 -0.3817,-0.0634 -0.3958,-0.0216 -0.4017,0.0204 -0.3997,0.0621 -0.3894,0.1025 -0.3711,0.1409 -0.3453,0.1763 m 53.0419,26.1585 -0.0622,0.1944 -0.0984,0.1416 -0.133,0.0862 -0.1649,0.0292 -0.1939,-0.0285 -0.2192,-0.0854 -0.2406,-0.1409 -0.2575,-0.1937 -0.2696,-0.2431 m -50.4423,-24.1661 -0.0546,-0.2353 -0.0923,-0.2628 -0.1253,-0.2771 -0.1521,-0.2774 -0.1712,-0.264 -0.1817,-0.2371 -0.1831,-0.1985 m -94.4244,55.1817 0.1831,0.1985 0.1818,0.2372 0.1712,0.2639 0.152,0.2775 0.1254,0.277 0.0922,0.2629 0.0546,0.2353 m 135.4398,-55.3302 -0.022,-0.2367 0.0162,-0.193 0.0537,-0.1434 0.0897,-0.0892 0.1228,-0.0324 0.1522,0.0254 m -156.3852,82.5162 0.0604,0.2918 0.092,0.3178 0.1217,0.3373 0.1489,0.3498 0.1731,0.3554 0.1938,0.3535 0.2105,0.3446 0.2229,0.3287 0.2308,0.3059 0.2341,0.2771 0.2324,0.2426 m 5.549,-21.1333 0.2082,0.1572 0.2558,0.1155 0.2905,0.068 0.3106,0.017 0.3151,-0.0348 0.3038,-0.0849 0.2774,-0.1307 m -12.0969,21.5588 0.1192,0.3308 0.1536,0.3455 0.1826,0.3483 0.2053,0.339 0.2208,0.3178 0.2287,0.2856 0.2286,0.2435 m 9.7978,-25.5215 -0.2533,0.1746 -0.2328,0.2145 -0.2008,0.2435 -0.1585,0.2605 -0.1084,0.2642 -0.0528,0.2549 0.006,0.2327 m -3.4388,29.0823 0.0998,0.0835 0.0882,0.0463 m 5.2122,-29.1048 -0.0546,-0.2353 -0.0923,-0.2628 -0.1252,-0.2771 -0.1521,-0.2774 -0.1712,-0.2639 -0.1817,-0.2372 -0.1832,-0.1985 m 5.3123,39.7929 0.0436,0.1689 0.0788,0.1907 0.1062,0.1939 0.1233,0.1779 0.1283,0.1447 m 5.3579,5.2058 0.2025,0.1788 0.1898,0.131 0.1716,0.0795 m 43.3791,-109.8062 -0.1292,0.0624 -0.1285,0.0592 -0.1329,0.0602 -0.08,0.0371 m -5.1018,2.9814 -0.0156,0.0192 -0.0147,0.0257 -0.0215,0.0283 -0.0414,0.0375 m 52.578,90.0103 0.1037,0.3034 0.1135,0.2908 0.1302,0.2697 0.1576,0.2516 0.1746,0.23 0.183,0.2193 m -3.0106,-0.4651 -0.3796,-0.5166 m 1.6566,1.9948 -0.2027,-0.2078 -0.2026,-0.2136 -0.2027,-0.2252 -0.1672,-0.1975 -0.1673,-0.2065 -0.1672,-0.2123 -0.1673,-0.2153 m 13.2349,10.3991 -0.1915,-0.2129 -0.1792,-0.2475 -0.1667,-0.2822 -0.1853,-0.3963 -0.147,-0.426 m -61.2421,34.8809 0.3894,0.5301 m 0,0 0.2055,0.2679 0.2131,0.2648 0.2205,0.2617 0.2186,0.2474 0.2126,0.228 0.2066,0.2085 m 68.3832,-23.2748 2.5415,-1.4853 m -5.4755,-41.4762 0.2568,0.0861 0.2753,0.0988 0.306,0.1198 0.3245,0.1325 m 0.7988,-0.3298 -0.3994,0.1649 -0.3994,0.1649 m -95.587,54.7446 -0.2359,0.6962 -0.236,0.6962 m 108.1443,-44.3947 -0.003,-0.5563 -0.003,-0.5563 m 5.7855,-2.2645 -0.5812,-0.2186 -0.5813,-0.2186 m 1.9615,0.1074 -0.3995,0.1649 -0.3995,0.1649 m 12.0164,11.6751 -0.0139,-0.3754 -0.0527,-0.3665 -0.1175,-0.352 -0.1564,-0.3429 m -113.5134,49.2758 -0.3307,-0.3468 m 88.1696,-131.3397 -0.4365,-0.0621 -0.4361,-0.0663 -0.4353,-0.0743 -0.4345,-0.0879 -0.4294,-0.1107 -0.4203,-0.1442 -0.3291,-0.1471 -0.3085,-0.1731 -0.2762,-0.1961 -0.2318,-0.2164 -0.1626,-0.2069 -0.1291,-0.2171 -0.107,-0.224 -0.0957,-0.2275 m 21.783,-17.0317 -0.0486,-0.2386 -0.0724,-0.2577 -0.095,-0.2739 m 0,0 -0.4075,-1.0776 -0.3902,-1.0256 -0.3727,-0.9736 -0.3555,-0.9216 m 14.0366,55.0161 0.1022,0.0926 0.0997,0.0333 0.0966,-0.0443 0.0717,-0.095 0.0698,-0.1433 0.0681,-0.1834 0.0669,-0.2156 0.0658,-0.2397 0.0653,-0.2558 0.0649,-0.2638 m -124.2342,105.3164 0.0778,-0.3675 0.0998,-0.357 0.1362,-0.3392 0.1581,-0.3286 m 11.5444,13.0675 -0.4405,-0.4508 m 71.9552,-139.0135 -0.2341,0.1343 -0.2299,0.1314 -0.2213,0.1254 -0.2085,0.1164 -0.1915,0.1044 -0.156,0.0817 -0.1404,0.0665 -0.1266,0.0484 -0.1548,0.0365 -0.1437,0.017 m 4.4313,4.3055 -0.1348,-0.2877 -0.1149,-0.2984 -0.0602,-0.2301 -0.0323,-0.2342 0.002,-0.2311 0.0471,-0.2446 0.0872,-0.2343 0.117,-0.2267 0.1371,-0.2216 0.147,-0.219 m -6.7258,-19.7369 0.6386,0.2583 0.6387,0.2583 m -1.9615,-0.1074 0.3411,-0.2107 0.341,-0.2108 m 0.002,0.013 0.1586,-0.6182 0.1585,-0.6181 m 30.5232,38.0279 -0.1348,-0.2877 -0.1149,-0.2984 -0.0602,-0.23 -0.0323,-0.2343 0.002,-0.231 0.0472,-0.2446 0.0872,-0.2344 0.117,-0.2266 0.137,-0.2216 0.1471,-0.219 m -2.82,-2.7399 -0.2523,0.1241 -0.2464,0.121 -0.2347,0.1148 -0.217,0.1055 -0.1935,0.093 -0.1696,0.0802 -0.1449,0.0672 -0.1264,0.0575 -0.1141,0.051 -0.1079,0.0477 m -139.2016,51.3294 0.083,-0.3636 0.0806,-0.3674 0.0763,-0.3749 0.0696,-0.3863 0.0606,-0.4013 0.0495,-0.4201 0.0291,-0.337 0.0202,-0.3427 0.0102,-0.3407 -6e-4,-0.331 -0.0117,-0.3125 -0.0205,-0.2997 -0.0262,-0.2912 -0.0292,-0.2869 m 17.2604,-4.0804 0.3229,-0.1876 m -2.7248,-17.0481 -0.2267,0.7553 m -5.1486,27.7267 -0.1348,-0.2877 -0.1149,-0.2984 -0.0603,-0.23 -0.0322,-0.2343 0.002,-0.2311 0.0472,-0.2445 0.0871,-0.2344 0.1171,-0.2267 0.137,-0.2215 0.147,-0.2191 m -2.8199,-2.7398 -0.2523,0.1241 -0.2465,0.121 -0.2347,0.1148 -0.217,0.1054 -0.1935,0.0931 -0.1695,0.0802 -0.1449,0.0672 -0.1264,0.0575 -0.1141,0.051 -0.1079,0.0477 m 9.7637,-25.0033 -0.363,-0.0301 -0.3869,-0.0515 -0.3942,-0.0886"
       sodipodi:nodetypes="ccccccccccccccccccccccccccccccccccccccccccccccccccccccccccccccccccccccccccccccccccccccccccccccccccccccccccccccccccccccccccccccccccccccccccccccccccccccccccccccccccccccccccccccccccccccccccccccccccccccccccccccccccccccccccccccccccccccccccccccccccccccccccccccccccccccccccccccccccccccccccccccccccccccccccccccccccccccccccccccccccccccccccccccccccccccccccccccccccccccccccccccccccccccccccccccccccccccccccccccccccccccccccccccccccccccccccccccccccccccccccccccccccccccccccccccccccccccccccccccccccccccccccccccccccccccccccccccccccccccccccccccccccccccccccccccccccccccccccccccccccccccccccccccccccccccccccccccccccccccccccccccccccccccccccccccccccccccccccccccccccccccccccccccccccccccccccccccccccccccccccccccccccccccccccccccccccccccccccccccccccccccccccccccccccccccccccccccccccccccccccccccccccccccccccccccccccccccccccccccccccccccccccccccccccc" /><path
       inkscape:connector-curvature="0"
       id="path410"
       style="fill:none;stroke:#000000;stroke-width:0.7087;stroke-linecap:round;stroke-linejoin:miter;stroke-miterlimit:10;stroke-opacity:1;stroke-dasharray:none"
       d="m 446.6383,142.3527 -9.2459,5.4034 m 32.7092,-5.8549 -8.8627,-8.611 m 8.8627,8.611 0.0773,0.4847 m 0,0 -8.8627,-8.611 m 0,0 -0.0773,-0.4847 m -0.3059,14.4991 0.4221,-0.2467 m 7.0499,-4.12 1.7739,-1.0367 m -18.1859,-3.6924 0.0773,0.4848 m 0,0 8.8627,8.611 m 0.3059,-14.4991 -9.2459,5.4033 m 9.3232,-4.9186 -9.2459,5.4034 m 32.7093,-5.855 -8.8627,-8.611 m 8.8627,8.611 0.0773,0.4848 m 0,0 -8.8627,-8.611 m 0,0 -0.0773,-0.4848 m -0.306,14.4992 0.4222,-0.2468 m 7.0499,-4.1199 1.7739,-1.0367 m -18.186,-3.6924 0.0773,0.4847 m 0,0 8.8627,8.6111 m 0.306,-14.4992 -9.246,5.4034 m 9.3233,-4.9186 -9.246,5.4033 m 32.7093,-5.8549 -8.8626,-8.611 m 8.8626,8.611 0.0773,0.4848 m 0,0 -8.8626,-8.6111 m 0,0 -0.0773,-0.4847 m -0.3061,14.4991 0.4222,-0.2467 m 7.0499,-4.12 1.7739,-1.0366 m -18.1859,-3.6924 0.0773,0.4847 m 0,0 8.8626,8.611 m 0.3061,-14.4991 -9.246,5.4034 m 9.3233,-4.9187 -9.246,5.4034 M 555.1831,63.345 324.0341,198.4289 m 0,0 -2.4739,-15.511 m 0,0 L 552.7091,47.834 m 0,0 2.474,15.511 m -231.149,135.0839 72.5128,70.4537 m 0,0 28.1882,-16.4732 m 122.5393,-71.6122 8.9744,-5.2447 m 10.6749,-6.2384 60.7722,-35.5154 m 0,0 -2.4739,-15.511 m 2.4739,15.511 -72.5128,-70.4537 m -2.474,-15.511 72.5129,70.4537 m -252.5348,61.0138 2.9033,2.8209 m 11.0433,10.7296 3.4882,3.3892 m -3.5658,-25.0447 -13.869,8.105 m 30.7021,8.2501 -16.8331,-16.3551 m 117.5392,-68.6902 2.9033,2.8209 m 10.9656,-10.9259 -13.8689,8.105 m 34.0114,11.4655 -20.1425,-19.5705 m 16.0165,21.9817 4.126,-2.4112 m 20.9482,20.3533 -4.2205,2.4664 m 24.3629,17.104 -20.1424,-19.5704 m 17.8982,20.8819 2.2442,-1.3115 m -206.5102,25.406 -0.0773,-0.4847 m 30.95,8.491 -17.081,-16.5961 m 0,0 0.0773,0.4848 m -0.0773,-0.4848 -13.869,8.1051 m 131.4855,-76.3105 -0.0773,-0.4847 m 34.0114,11.4654 0.0773,0.4848 M 538.0295,113.487 517.887,93.9166 m 0,0 0.0773,0.4847 m -0.0773,-0.4847 -13.8689,8.105 m 75.1021,51.3892 0.0772,0.4847 m -0.0772,-0.4847 -20.1426,-19.5705 m 0,0 0.0774,0.4848 m -0.0774,-0.4848 -4.732,2.7655 m -17.5177,1.258 0.3777,-0.1792 m -141.5211,86.402 3.4673,-2.0263 m 0,0 0.554,0.5383 m 27.6059,31.8981 -0.2049,0.1198 m 0,0 -31.4223,-30.5299 m -9.9979,-31.5927 -9.6684,-9.3939 m 11.6299,9.5013 4.0451,-2.364 m -15.3249,-8.5955 9.246,-5.4034 m 4.223,17.5908 4.4068,27.629 m 67.0539,-85.1006 -0.5291,0.2525 m -14.678,8.5778 0.3399,2.1309 m 0.1893,-2.3834 -0.5292,0.2525 m 1.2481,2.4866 -0.3851,-2.4148 m -5.6248,5.0406 -0.3399,-2.1309 m 4.0546,-0.9265 1.387,0.0759 m -1.6176,-1.5214 0.2306,1.4455 m 1.0471,-2.055 -1.2776,0.6096 m 4.1721,12.7977 5.7787,-3.3771 m -1.3133,-1.6052 -5.7787,3.3771 m -0.3331,-9.3155 6.1118,5.9384 m -5.7787,3.3771 -6.1119,-5.9384 m -0.2311,-0.7513 0.2475,-1.0312 m 0,1e-4 3.4672,-2.0263 m -3.4672,2.0262 -0.2306,-1.4454 m 0,0 3.4673,-2.0262 m 8.2523,5.4005 -6.1117,-5.9383 m 11.0638,11.6583 -1.3159,-1.2786 m -25.2889,-1.8737 0.3399,2.1309 m 0.1893,-2.3834 -0.5292,0.2525 m 1.2481,2.4866 -0.3852,-2.4148 m -5.6247,5.0406 -0.3399,-2.1309 m 4.0546,-0.9265 1.387,0.0759 m -1.6175,-1.5213 0.2305,1.4454 m 1.0471,-2.055 -1.2776,0.6096 m 4.1721,12.7977 5.7787,-3.377 m -1.3132,-1.6054 -5.7788,3.3771 m -0.3331,-9.3154 6.1119,5.9383 m -5.7788,3.3771 -6.1118,-5.9383 m -0.2312,-0.7513 0.2475,-1.0311 m 10e-5,-1e-4 3.4671,-2.0262 m -3.4672,2.0263 -0.2305,-1.4454 m 0,0 3.4672,-2.0263 m 8.2524,5.4005 -6.1119,-5.9383 m 11.064,11.6583 -1.316,-1.2786 m 33.423,-36.1849 0.3399,2.1309 m 0.1893,-2.3834 -0.5292,0.2525 m 1.2481,2.4866 -0.3852,-2.4149 m -5.6247,5.0406 -0.3399,-2.1309 m 4.0546,-0.9265 1.387,0.076 m -1.6175,-1.5214 0.2305,1.4454 m 1.0471,-2.0549 -1.2776,0.6095 m 4.1721,12.7977 5.7787,-3.377 m -1.3132,-1.6053 -5.7788,3.377 m -0.3331,-9.3153 6.1119,5.9383 m -5.7788,3.377 -6.1118,-5.9382 m -0.2312,-0.7514 0.2475,-1.0311 m 0,0 3.4672,-2.0263 m -3.4672,2.0263 -0.2305,-1.4454 m 0,0 3.4672,-2.0263 m 8.2524,5.4005 -6.1119,-5.9383 m 11.064,11.6583 -1.316,-1.2785 m -69.3227,23.8598 0.3399,2.1309 m 0.1893,-2.3834 -0.5292,0.2525 m 1.2481,2.4866 -0.3852,-2.4149 m -5.6248,5.0406 -0.3398,-2.1309 m 4.0546,-0.9264 1.387,0.0759 m -1.6175,-1.5214 0.2305,1.4455 m 1.0471,-2.055 -1.2776,0.6095 m 4.1721,12.7978 5.7787,-3.3771 m -1.3133,-1.6053 -5.7787,3.3771 m -0.3331,-9.3154 6.1118,5.9383 m -5.7787,3.3771 -6.1119,-5.9383 m -0.2312,-0.7514 0.2475,-1.0311 m 0,0 3.4673,-2.0262 m -3.4673,2.0262 -0.2305,-1.4454 m 0,0 3.4673,-2.0263 m 8.2524,5.4005 -6.1119,-5.9383 m 31.7417,101.5116 -2.0475,1.1966 m 3.0105,0.4651 -1.7336,1.0132 m 1.7336,-1.0132 0.3105,0.3017 m -1.7336,1.0131 -0.3105,-0.3016 m -19.9072,-92.5282 -1.3159,-1.2786 m 30.1705,102.2624 2.0476,-1.1966 m -0.7707,2.6749 1.7337,-1.0131 m 0.3184,0.3095 -0.3184,-0.3095 m 29.5978,-156.0682 0.3398,2.1309 m 0.1894,-2.3833 -0.5292,0.2524 m 1.248,2.4867 -0.3851,-2.4149 m -5.6248,5.0406 -0.3398,-2.1309 m 4.0546,-0.9265 1.3869,0.0759 m -1.6175,-1.5213 0.2306,1.4454 m 1.0471,-2.055 -1.2776,0.6096 m 4.1721,12.7978 5.7787,-3.3771 m -1.3133,-1.6053 -5.7787,3.3771 m -0.3332,-9.3154 6.1119,5.9383 m -5.7787,3.3771 -6.1119,-5.9383 m -0.2312,-0.7514 0.2475,-1.0311 m 10e-5,0 3.4672,-2.0263 m -3.4673,2.0263 -0.2305,-1.4455 m 0,0 3.4673,-2.0262 m 8.2523,5.4005 -6.1118,-5.9383 m 31.7417,101.5115 -2.0475,1.1966 m 3.0105,0.4652 -1.7335,1.0131 m 1.7335,-1.0131 0.3105,0.3016 m -1.7336,1.0131 -0.3104,-0.3016 m -19.9073,-92.5281 -1.316,-1.2786 m 30.1787,102.2702 2.0475,-1.1966 m -0.7706,2.675 1.7336,-1.0132 m -1.7336,1.0132 0.3104,0.3016 m 1.7336,-1.0132 -0.3104,-0.3016 m 21.3155,-1.8321 -11.9711,-11.7074 m -4.5614,-97.6167 0.6676,-0.014 0.6819,0.016 0.6927,0.0485 0.6994,0.0831 0.7014,0.1196 0.6986,0.1577 0.6901,0.197 0.676,0.2368 0.6561,0.2767 0.6301,0.316 0.5983,0.354 0.5612,0.3902 0.5188,0.4239 0.472,0.4544 0.4214,0.4814 0.3679,0.5044 0.3123,0.523 0.2557,0.5373 0.1985,0.5468 0.1423,0.552 0.0873,0.5529 0.0345,0.5497 -0.0154,0.5426 -0.0624,0.5324 -0.1056,0.5192 -0.145,0.5036 -0.1805,0.4858 m -11.7574,6.3085 -0.1452,0.0175 -0.1198,0.0609 -0.0885,0.1048 -0.0535,0.1454 -0.017,0.18 0.0181,0.2066 m -151.1131,54.0941 0.1934,0.1484 0.2526,0.1182 0.3004,0.073 0.3271,0.0179 0.3273,-0.0386 0.3019,-0.0879 0.2588,-0.1236 m -12.3377,-12.8618 -10e-4,-0.228 0.0686,-0.2295 0.1324,-0.2143 0.1817,-0.1854 0.2123,-0.1488 m 0.4639,2.9083 -0.1969,0.136 -0.172,0.1676 -0.1322,0.1936 -0.0802,0.2097 -0.0213,0.2129 0.0371,0.2029 0.0881,0.1818 0.1273,0.1537 m 11.5575,-6.7542 -0.1935,-0.1483 -0.2525,-0.1182 -0.3004,-0.073 -0.3271,-0.0179 -0.3272,0.0386 -0.302,0.0878 -0.2587,0.1236 m 4.223,17.5908 -0.0305,-0.3589 0.0206,-0.3992 0.0776,-0.4338 0.1378,-0.4601 0.1987,-0.4754 0.2567,-0.4784 0.3086,-0.4681 m 8.345,31.305 -0.302,-0.3306 -0.3187,-0.4294 -0.3018,-0.4963 -0.2502,-0.511 -0.1747,-0.4707 -0.0931,-0.3904 m -3.4672,2.0263 0.0931,0.3904 0.1747,0.4707 0.2501,0.511 0.3019,0.4962 0.3187,0.4295 0.3019,0.3306 m 31.4223,30.5299 0.1294,0.1185 0.1301,0.1037 m 34.2655,-118.1568 -0.1691,-0.1644 -0.1647,-0.1599 m -14.8672,10.9612 0.2633,0.0341 0.2486,0.0735 0.2188,0.1096 0.1775,0.1385 m -0.3851,-2.4148 -0.1692,-0.1643 -0.1646,-0.16 m -5.0599,6.1162 -0.1338,-0.1639 -0.0865,-0.187 -0.0325,-0.1997 0.0217,-0.2007 m 9.6044,10.7577 -0.4928,-0.5463 -0.4944,-0.5995 -0.4878,-0.6426 -0.4731,-0.6744 m 5.7787,-3.3771 0.4731,0.6744 0.4878,0.6426 0.4944,0.5995 0.4929,0.5463 m -7.7269,0.9143 -0.4299,-0.5985 -0.4441,-0.5428 -0.4393,-0.4639 m 5.7787,-3.3771 0.4394,0.4639 0.444,0.5428 0.4299,0.5985 m 0.629,-1.1773 -0.5679,-0.8022 -0.5865,-0.7532 -0.5913,-0.6854 -0.5818,-0.602 m 3.6362,4.4414 -0.4378,-0.4622 -0.4424,-0.5404 -0.4285,-0.596 m -23.6403,1.8558 0.2633,0.0341 0.2486,0.0735 0.2189,0.1096 0.1774,0.1385 m -0.3852,-2.4148 -0.169,-0.1643 -0.1647,-0.16 m -5.0598,6.1162 -0.1339,-0.1639 -0.0864,-0.187 -0.0326,-0.1997 0.0217,-0.2007 m 9.6045,10.7577 -0.4929,-0.5463 -0.4944,-0.5994 -0.4878,-0.6426 -0.4731,-0.6745 m 5.7787,-3.377 0.4732,0.6744 0.4877,0.6426 0.4945,0.5994 0.4928,0.5463 m -7.7269,0.9143 -0.4299,-0.5985 -0.444,-0.5428 -0.4394,-0.464 m 5.7788,-3.3771 0.4393,0.464 0.4441,0.5428 0.4298,0.5986 m 0.629,-1.1773 -0.5679,-0.8023 -0.5865,-0.7532 -0.5912,-0.6853 -0.5818,-0.6021 m 3.6361,4.4414 -0.4377,-0.4622 -0.4425,-0.5404 -0.4285,-0.5959 m 35.0716,-32.4555 0.2633,0.0341 0.2486,0.0734 0.2188,0.1097 0.1775,0.1385 m -0.3852,-2.4149 -0.1691,-0.1643 -0.1646,-0.1599 m -5.0598,6.1162 -0.1339,-0.164 -0.0865,-0.187 -0.0325,-0.1997 0.0217,-0.2006 m 9.6044,10.7576 -0.4928,-0.5463 -0.4944,-0.5994 -0.4878,-0.6426 -0.4731,-0.6745 m 5.7787,-3.377 0.4731,0.6744 0.4878,0.6426 0.4944,0.5994 0.4929,0.5463 m -7.7269,0.9143 -0.4299,-0.5985 -0.444,-0.5428 -0.4394,-0.464 m 5.7788,-3.377 0.4393,0.4639 0.444,0.5428 0.4299,0.5986 m 0.629,-1.1773 -0.5679,-0.8023 -0.5865,-0.7532 -0.5912,-0.6853 -0.5818,-0.6021 m 3.6361,4.4415 -0.4377,-0.4622 -0.4425,-0.5405 -0.4285,-0.5959 m -67.6741,27.5893 0.2632,0.0341 0.2487,0.0734 0.2188,0.1097 0.1775,0.1385 m -0.3852,-2.4149 -0.1691,-0.1643 -0.1647,-0.1599 m -5.0598,6.1162 -0.1339,-0.164 -0.0864,-0.187 -0.0326,-0.1997 0.0217,-0.2007 m 9.6045,10.7577 -0.6578,-0.7406 -0.6559,-0.8294 -0.6344,-0.8927 m 5.7787,-3.3771 0.6344,0.8927 0.6559,0.8294 0.6578,0.7406 m -7.7268,0.9144 -0.4299,-0.5985 -0.444,-0.5428 -0.4394,-0.464 m 5.7787,-3.3771 0.4394,0.464 0.444,0.5428 0.4299,0.5985 m 0.629,-1.1773 -0.5679,-0.8023 -0.5865,-0.7532 -0.5912,-0.6853 -0.5818,-0.6021 m 3.6361,4.4414 -0.4378,-0.4621 -0.4424,-0.5405 -0.4285,-0.5959 m 21.2549,93.927 -0.1994,-0.2693 -0.1936,-0.2658 m 2.535,-0.5595 0.1236,0.3641 0.1534,0.3479 0.1786,0.3218 0.1988,0.2858 0.2141,0.2401 m -1.7336,1.0132 -0.2461,-0.2499 -0.2596,-0.2832 -0.2643,-0.3061 -0.26,-0.3186 -0.2469,-0.3205 m 13.2349,10.3991 -0.2142,-0.2401 -0.1988,-0.2859 -0.1785,-0.3217 -0.1535,-0.3479 -0.1236,-0.3641 m 30.8062,-152.3776 0.2633,0.0341 0.2486,0.0735 0.2189,0.1096 0.1774,0.1386 m -0.3851,-2.4149 -0.1691,-0.1643 -0.1646,-0.16 m -5.0599,6.1163 -0.1339,-0.164 -0.0864,-0.187 -0.0326,-0.1997 0.0217,-0.2007 m 9.6045,10.7577 -0.4928,-0.5463 -0.4945,-0.5994 -0.4878,-0.6426 -0.473,-0.6744 m 5.7787,-3.3771 0.4731,0.6744 0.4877,0.6426 0.4945,0.5994 0.4928,0.5463 m -7.7268,0.9144 -0.4299,-0.5986 -0.4441,-0.5428 -0.4393,-0.4639 m 5.7787,-3.3771 0.4393,0.4639 0.4441,0.5428 0.4299,0.5986 m 0.629,-1.1773 -0.568,-0.8023 -0.5865,-0.7532 -0.5912,-0.6854 -0.5818,-0.602 m 3.6361,4.4414 -0.4377,-0.4622 -0.4425,-0.5404 -0.4284,-0.5959 m 21.2549,93.9269 -0.1994,-0.2692 -0.1936,-0.2659 m 2.535,-0.5595 0.1593,0.453 0.2042,0.4238 0.2395,0.3753 0.2655,0.3077 m -1.7335,1.0131 -0.2462,-0.2498 -0.2596,-0.2833 -0.2643,-0.3061 -0.26,-0.3185 -0.2469,-0.3206 m 9.8394,9.4067 0.1936,0.2659 0.1994,0.2692 m 0,0 0.2469,0.3205 0.26,0.3186 0.2643,0.3062 0.2596,0.2832 0.2461,0.2499 m 1.7336,-1.0132 -0.2141,-0.2401 -0.1988,-0.2859 -0.1786,-0.3218 -0.1535,-0.3478 -0.1236,-0.3641 m 12.0234,-108.1062 -0.0684,-0.1697 -0.0733,-0.1684 m 14.142,55.5687 0.1208,0.0192 0.0927,-0.0155 0.0822,-0.0618 0.0715,-0.1067 0.065,-0.1477 0.0628,-0.1849 0.0647,-0.218 0.0708,-0.2473 0.0811,-0.2727 0.0957,-0.2941 m -4.6469,54.1327 0.0242,-0.3914 -0.0481,-0.3795 -0.1099,-0.3613 -0.1614,-0.3369 m -113.5134,49.2757 -0.2339,-0.1396 -0.2068,-0.1633 m 6.6784,15.3551 -0.5062,-0.3664 m -29.3042,-98.5544 -0.1502,0.4484 -0.2007,0.4112"
       sodipodi:nodetypes="ccccccccccccccccccccccccccccccccccccccccccccccccccccccccccccccccccccccccccccccccccccccccccccccccccccccccccccccccccccccccccccccccccccccccccccccccccccccccccccccccccccccccccccccccccccccccccccccccccccccccccccccccccccccccccccccccccccccccccccccccccccccccccccccccccccccccccccccccccccccccccccccccccccccccccccccccccccccccccccccccccccccccccccccccccccccccccccccccccccccccccccccccccccccccccccccccccccccccccccccccccccccccccccccccccccccccccccccccccccccccccccccccccccccccccccccccccccccccccccccccccccccccccccccccccccccccccccccccccccccccccccccccccccccccccccccccccccccccccccccccccccccccccccccccccccccccccccccccccccccccccccccccccccccccccccccccccccccccccccccccccccccccccccccccccccccccccccccccccccccccccccccccccccccccccccccccccccccccccccccccccc" /><path
       inkscape:connector-curvature="0"
       id="path414"
       style="fill:none;stroke:#000000;stroke-width:0.7087;stroke-linecap:round;stroke-linejoin:miter;stroke-miterlimit:10;stroke-opacity:1;stroke-dasharray:none"
       d="m 426.0678,167.635 -8.8627,-8.6111 m 8.8627,8.6111 0.0772,0.4846 m 0,0 -8.8626,-8.6109 m 0,0 -0.0773,-0.4848 m -0.306,14.4992 0.4221,-0.2468 m 7.0499,-4.1199 1.7739,-1.0368 m -18.1859,-3.6923 0.0773,0.4847 m 0,0 8.8627,8.6111 m 0.306,-14.4992 -9.246,5.4034 m 9.3233,-4.9186 -9.246,5.4033 m 32.7093,-5.8549 -8.8627,-8.611 m 8.8627,8.611 0.0773,0.4848 m 0,0 -8.8627,-8.6111 m 0,0 -0.0773,-0.4847 m -0.306,14.4991 0.4222,-0.2467 m 7.0499,-4.12 1.7739,-1.0366 m -18.186,-3.6924 0.0773,0.4847 m 0,0 8.8627,8.611 m 0.306,-14.4991 -9.246,5.4034 m 9.3233,-4.9187 -9.246,5.4034 m 32.7093,-5.8549 -8.8626,-8.611 m 8.8626,8.611 0.0774,0.4847 m 0,0 -8.8627,-8.611 m 0,0 -0.0773,-0.4847 m -0.306,14.4991 0.4221,-0.2467 m 7.0499,-4.12 1.774,-1.0367 m -18.186,-3.6923 0.0774,0.4847 m 0,0 8.8626,8.611 m 0.306,-14.4991 -9.246,5.4034"
       sodipodi:nodetypes="cccccccccccccccccccccccccccccccccccccccccccccccccccccccccc" /><path
       inkscape:connector-curvature="0"
       id="path458"
       style="fill:none;stroke:#000000;stroke-width:0.7087;stroke-linecap:round;stroke-linejoin:miter;stroke-miterlimit:10;stroke-opacity:1;stroke-dasharray:none"
       d="m 563.0751,145.1845 4.4067,27.6289 m -5.0191,-28.2239 0.6124,0.595 m -8.552,-8.3091 -8.371,-8.1333 m -7.4305,-7.2195 -2.2346,-2.1711 m -7.2513,-7.0454 7.2513,7.0454 m -7.2513,-7.0454 4.4067,27.6289 m 1.4405,2.6284 31.4223,30.53 m -3.6732,-8.7299 -0.1083,-0.6786 m -7.7973,-5.7738 6.929,6.7323 m -9.1504,-14.2563 0.7809,4.8957 m -4.8985,-9.7156 3.1573,3.0677 m -13.4963,-6.9281 6.929,6.7322 m -8.4777,-10.0392 0.1082,0.6786 m -2.6904,-16.8682 0.1082,0.6786 m 1.3775,-0.4639 -0.5091,-0.4946 m -3.4784,22.6594 3.4672,-2.0263 m -1.4405,-2.6284 -3.4672,2.0263 m 36.33,31.1321 -3.4673,2.0262 m 0,0 -31.4222,-30.5299 m -5.8472,-30.2574 -0.3658,-2.2935 m 4.7725,29.9225 -4.4067,-27.629 m 10.9593,23.5315 0.2697,-0.1576 m -8.7953,-27.3035 -4.0451,2.364 m 4.3951,-3.8222 -9.6683,-9.3938 m -1.9615,-0.1074 -9.2459,5.4033 m -0.3501,1.4583 13.2894,12.912 m -4.1572,-22.6819 0.4638,2.9083 m 1.9615,0.1074 -0.4639,-2.9083 m -11.2074,5.2959 9.246,-5.4033 m -8.7821,8.3116 -0.4639,-2.9083 m 11.2074,-5.2959 9.6684,9.3938 m 0,0 0.4638,2.9083 m -21.4696,-3.0918 -0.4639,-2.9083 m 21.7136,3.544 0.4638,2.9083 m 6.298,12.5336 -0.9342,0.5459 m -5.4284,-11.1934 7.2513,7.0453 m 31.3631,55.1466 -3.4672,2.0263 m -1.0467,-11.1375 -0.7599,0.444 m -0.5066,-0.4458 1.1582,-0.6768 m 13.8204,-6.313 -9.246,5.4033 m -0.0723,-16.2554 9.6683,9.3939 m -11.6298,-9.5013 -1.8234,1.0656 m 1.3596,-3.9739 0.4638,2.9083 m 1.4976,-2.8009 0.4639,2.9083 m -4.3272,-1.9043 1.9019,-1.1114 m 12.0936,12.4096 -0.4638,-2.9084 m 0,0 -9.6684,-9.3938 m 9.9122,9.846 0.4639,2.9083 m -117.5162,-17.7007 1.3869,0.0759 m -4.8542,1.9503 3.4673,-2.0262 m -3.7148,3.0573 0.2475,-1.0311 m 6.0956,7.7208 -6.1119,-5.9383 m 11.8906,2.5612 -5.7787,3.3771 m -0.3332,-9.3154 6.1119,5.9383 m -7.3599,-8.4249 -1.2777,0.6095 m 0,0 0.2306,1.4455 m 1.0471,-2.055 0.3398,2.1309 m 11.587,9.5991 -1.3159,-1.2785 m -3.6362,-4.4414 -6.1118,-5.9383 m 0.3851,2.4148 -0.3851,-2.4148 m -5.6078,2.564 3.4672,-2.0263 m -3.2367,3.4717 -0.2305,-1.4454 m -0.017,2.4765 -0.3399,-2.1309 m 0.3272,2.4301 -0.375,-2.3512 m 8.044,10.347 5.7787,-3.3771 m -28.1256,3.9592 -0.375,-2.3512 m -14.303,10.929 -0.375,-2.3512 m 82.7511,74.4512 0.3105,0.3017 m -1.2735,-1.9634 -2.0476,1.1966 m 3.0106,0.4651 -1.7336,1.0131 m 0.3104,0.3017 -0.3104,-0.3017 m -36.6086,-98.8466 -0.375,-2.3512 m -58.3369,36.6625 -0.3749,-2.3512 m 107.9718,76.1169 -0.3185,-0.3095 m -1.6757,-1.2453 0.7127,-0.4165 m 0.717,1.8056 0.246,-0.1438 m -60.4455,35.3244 0.3185,0.3095 m 26.2384,-151.9792 -0.375,-2.3512 m 57.9716,150.3061 -51.5462,30.1237 m -0.0185,-80.2241 51.5647,50.1004 M 451.2934,246.09 491.2821,222.7205 m -43.2115,20.2382 3.2228,3.1313 m -14.7803,3.6229 11.5575,-6.7542 m 43.23,59.9859 -54.7875,-53.2317 m 60.0213,-65.5626 -2.3555,-2.1361 m 1.9498,0.0111 0.3198,1.5866 m -7.6934,-12.4236 7.3736,10.837 m -8.984,-12.3963 1.6104,1.5593 m 8.6349,49.2746 -10.2453,-50.8339 m 6.9899,51.767 -3.6256,-3.5227 m 0.7731,4.8472 -0.7731,-4.8472 m 51.5647,50.1004 0.7731,4.8472 m -4.3987,-8.3699 3.6256,3.5227 m -9.7326,-23.8411 1.3054,11.5571 m -4.0325,-3.9182 -0.641,-5.6703 m -5.5512,3.7502 2.9408,2.8573 m -4.5196,-8.4873 0.6185,3.8778 m -13.268,-16.168 12.6495,12.2902 m -11.8764,-7.443 -0.7731,-4.8472 m -2.9734,1.207 3.7465,3.6402 m -16.9667,-54.1716 8.4186,41.7702 m -50.8983,16.8658 0.7732,4.8472 m 39.2156,-28.2167 -39.9888,23.3695 m 44.274,-19.2629 2.5958,-1.517 m -50.0925,17.6486 0.7731,4.8472 m 2.4496,-1.7159 -3.2227,-3.1313 m -11.5575,6.7542 0.7731,4.8472 m 10.7844,-11.6014 -11.5575,6.7542 m -0.1415,-45.113 51.5462,-30.1237 m -51.5462,30.1237 8.149,40.4328 m 62.8135,-6.7159 2.6325,-1.5384 m -16.1768,-49.2378 1.1622,-0.6792 m -100.9743,9.7888 1.2042,1.17 m 3.2025,26.4589 -4.4067,-27.6289 m 0.9395,29.6551 3.4672,-2.0262 m -4.4067,-27.6289 -0.2835,-1.7775 m -7.4069,-13.787 -0.4638,-2.9084 m 1.9614,0.1075 0.4639,2.9083 m 0,0 13.2894,12.912 m -24.9607,-10.5244 0.4639,2.9083 m 8.7821,-8.3117 -9.246,5.4034 m 26.5401,9.6014 -15.3327,-14.8973 m -11.3374,9.2103 -0.4639,-2.9083 m 59.7641,90.0491 -5.7284,-2.9151 m 5.7284,2.9151 13.8631,-8.1016 m 54.7368,-31.9883 21.2015,-12.3902 m 0.5291,-6.572 -0.5291,6.572 m -95.5298,49.565 15.5676,-9.0977 m 56.6551,-33.1094 23.8362,-13.9299 m 12.0854,11.7423 -12.0854,-11.7423 m -0.5291,6.572 12.0855,11.7423 m 0.529,-6.572 -0.529,6.572 m -89.8014,52.4801 -12.0855,-11.7423 m 6.3068,15.1193 5.7787,-3.377 m 1.8754,10.8138 -7.6541,-7.4368 m 109.013,-51.7974 -27.4192,16.0237 m -54.2966,31.7311 -19.6431,11.4794 m 93.7047,-66.671 7.6542,7.4368 m -13.4329,-4.0597 5.7787,-3.3771 m -93.0777,36.718 -12.0135,7.0207 m 8.0569,7.8282 12.0136,-7.0207 m -20.0705,-0.8075 8.0569,7.8282 m 63.3681,-49.5691 -4.8781,2.8508 m 12.9351,4.9774 -8.057,-7.8282 m 5.4565,9.3479 2.6005,-1.5197 m 6.621,-16.406 -12.7132,7.4296 m 20.7702,0.3986 -8.057,-7.8282 m -4.6563,15.2578 12.7133,-7.4296 m -20.7702,-0.3986 8.0569,7.8282 m -63.1574,52.8309 12.0136,-7.0207 m -20.0706,-0.8075 8.057,7.8282 m 3.9566,-14.8489 -12.0136,7.0207 m 74.7071,-31.1222 4.7749,-2.7905 m -8.0569,-7.8282 -2.6005,1.5197 m 10.6574,6.3085 -8.0569,-7.8282 m 10.0217,6.68 12.7132,-7.4296 m -20.7702,-0.3986 8.057,7.8282 m 4.6562,-15.2578 -12.7132,7.4296 m 20.7702,0.3986 -8.057,-7.8282 m -16.6071,-73.9698 8.8267,55.341 m -8.8267,-55.341 -2.7832,-17.4499 m -1.9614,-0.1074 11.6099,72.7909 m 0,0 -22.8684,13.3644 m -57.1784,33.4151 -14.3776,8.4023 m 96.3858,-55.0744 11.2798,10.9595 m -119.2755,-28.676 94.4244,-55.1818 m -82.8145,127.9727 -11.6099,-72.7909 m 103.6003,-33.319 -4.4313,-4.3055 m 20.1065,66.3005 -10.7188,-67.2043 m -5.2325,3.4781 0.2761,1.7312 m 0.5345,60.7514 1.409,-1.0289 m 2.2972,4.6299 -3.7062,-3.601 m 9.466,6.7993 -5.7598,-3.1983 m -10.1784,0.1814 -4.832,2.6183 m 8.5382,0.9826 -0.4813,6.8456 m -3.2249,-10.4465 3.7062,3.6009 m 35.7086,3.2709 -12.0164,-11.6751 m 0,0 -0.529,6.572 m 7.6542,7.4368 4.8912,-2.3337 m -12.0164,-11.6751 -5.7787,3.3771 m -29.8255,6.2217 1.409,-1.029 m 2.2972,4.6299 -3.7062,-3.6009 m 9.466,6.7992 -5.7598,-3.1983 m 8.2058,-4.7955 6.4722,-3.7823 m -6.3672,3.3449 5.7787,-3.3771 m -9.0015,0.2458 3.2228,3.1313 m 2.5559,-6.5084 -5.7787,3.3771 m 9.0015,-0.2458 -3.2228,-3.1313 m 19.8688,-1.8956 -10.7189,-67.2042 m 2.2708,2.0469 10.4096,65.2647 m -6.5845,2.5943 4.623,-2.7017 m 1.9615,0.1074 10.8769,10.5681 m -8.8268,-55.3411 -4.4313,-4.3055 m 0,0 -1.5829,-9.9243 m 14.841,69.5709 -8.8268,-55.3411 m -26.6613,51.6588 0.225,1.4108 m -0.225,-1.4108 -2.2316,-2.1683 m 1.8706,-1.0933 0.5066,3.1763 m 4.8669,-2.8441 -5.0125,2.9294 m 1.8141,10.8074 4.8321,-2.6183 m 6.4721,-3.7824 1.409,-1.0289 m 2.2973,4.6299 -3.7063,-3.601 m 3.7063,3.601 5.7597,3.1983 m -31.7295,-3.9432 1.0594,-0.6191 m -1.3011,0.3843 0.7127,-0.4165 m -3.2228,-3.1313 -3.0798,1.7998 m 6.3026,1.3315 -3.2228,-3.1313 m 13.4295,-4.3759 -0.4301,-2.6967 m 9.25,15.3824 -0.4813,6.8456 m -3.2249,-10.4465 3.7062,3.6009 m -82.1401,56.2203 1.3662,-1.3233 m 106.2501,-61.5679 -32.0595,18.7357 m -54.2117,31.6814 -21.3451,12.4741 m 62.1222,-62.3618 -3.3449,1.9548 m 11.4508,5.3813 1.409,-1.029 m 2.2972,4.6299 -3.7062,-3.6009 m 3.7062,3.6009 5.7597,3.1983 m 2.4461,-7.9938 6.4722,-3.7823 m -3.8113,-3.1635 -5.7787,3.3771 m 9.0015,-0.2458 -3.2228,-3.1313 m -2.5559,6.5084 5.7787,-3.3771 m -9.0015,0.2458 3.2228,3.1313 m -0.0856,-1.4924 -0.5066,-3.1763 m 16.52,-60.0737 0.2761,1.731 m -39.8464,59.092 -0.3904,-2.4477 m 24.0329,6.3671 -0.225,-1.4108 m 0,0 -2.2316,-2.1683 m 7.2441,-0.7611 -5.0125,2.9294 m -9.1452,7.2628 1.0594,-0.6191 m -3.8112,-3.1635 -0.7127,0.4165 m 3.9355,2.7148 -3.2228,-3.1313 m 2.5101,3.5478 0.7127,-0.4165 m 9.7681,-10.2145 0.4324,2.711 m -11.1918,6.5405 -0.7127,0.4165 m -76.8302,25.1296 -4.832,2.6183 m 11.3042,-6.4006 0.7693,-0.5619 m 2.9369,4.1628 -3.7062,-3.6009 m 6.8511,5.3472 -3.1449,-1.7463 m -11.2277,12.0031 5.7284,2.9151 m -5.7284,-2.9151 -12.0855,-11.7423 m 16.841,3.5216 -0.4813,6.8455 m -3.2249,-10.4465 3.7062,3.601 m -16.8892,-3.4454 -11.6837,-73.2534 m 28.5729,76.6988 6.4722,-3.7824 m -6.3672,3.3449 5.7787,-3.3771 m -9.0015,0.2458 3.2228,3.1313 m 2.556,-6.5084 -5.7788,3.3771 m 9.0015,-0.2458 -3.2227,-3.1313 m -2.781,5.0976 0.225,1.4108 m -0.225,-1.4108 -2.2316,-2.1682 m 86.4038,-124.6424 -5.2009,3.0394 m 7.1215,0.4652 -2.8894,1.6885 m 17.8437,-17.3496 -0.2928,-1.8358 m 15.955,47.244 -30.6165,-29.7471 m -86.4538,120.0445 0.5066,3.1763 m 112.8593,-90.2632 -33.5476,-32.595 m 34.3627,31.073 -30.6166,-29.7471 m -78.1909,118.6882 -5.0125,2.9293 m 13.1183,4.4068 0.7694,-0.5619 m 2.9369,4.1628 -3.7063,-3.6009 m 3.7063,3.6009 3.1449,1.7463 m -18.1554,1.0534 4.8321,-2.6183 m 107.1738,-100.0595 2.8893,-1.6885 m -37.738,-30.2123 -3.1698,-19.8734 m -5.0306,-3.4189 9.3038,-5.4371 m -10.9234,3.2042 0.3093,1.9389 m -8.3995,2.7891 8.0902,-4.728 m -7.4717,8.6057 -0.6185,-3.8777 m 0.6185,3.8777 -95.4645,55.7896 m -0.6185,-3.8777 0.6185,3.8777 m -8.7088,0.8502 8.0903,-4.7279 m -7.781,6.6668 -0.3093,-1.9389 m -9.9956,9.0209 9.3038,-5.4371 m -5.2063,31.1272 -4.0975,-25.6901 m 9.2984,22.6507 -5.2009,3.0394 m 2.0311,-22.9129 3.1698,19.8735 m 117.6821,-91.5593 -119.8508,70.041 m 46.8921,73.0019 -0.4301,-2.6966 m 9.25,15.3824 -0.4813,6.8455 m -3.2249,-10.4465 3.7062,3.601 m -20.7666,1.6559 5.7284,2.9151 m -5.7284,-2.9151 5.7787,-3.377 m 14.9879,1.7211 6.4722,-3.7824 m 80.2361,-136.8781 -1.0011,1.6448 m -0.4394,-4.2732 -1.9614,-0.1074 m -80.6455,136.4504 -5.7787,3.3771 m 9.0015,-0.2458 -3.2228,-3.1313 m -2.5559,6.5084 5.7787,-3.3771 m -9.0015,0.2458 3.2228,3.1313 m 80.3116,-141.27 2.8898,-1.6888 m 2.4008,4.3806 -2.6071,1.5236 M 447.5693,293.6681 435.553,281.9929 m 119.9564,-144.5254 0.9587,6.0105 m 0,0 -9.4267,-9.159 m 0,0 -0.9587,-6.0105 m -0.4801,-0.8761 -5.3579,-5.2058 m -0.9766,0.28 2.3193,14.5415 m 1.4405,2.6284 5.3579,5.2057 m 0.3255,-0.0933 -1.0823,-6.786 m 9.4266,9.159 -9.4266,-9.159 m 9.4266,9.159 1.0824,6.786 m 0.4801,0.8761 5.3579,5.2058 m 0.9767,-0.2799 -2.3194,-14.5416 m -1.4404,-2.6284 -5.3579,-5.2057 m -99.496,141.033 -0.5066,-3.1764 m -15.2988,2.7349 -4.5087,2.6349 m 112.3609,-135.7184 -1.0011,1.6449 m 0,0 -5.3579,-5.2058 m -2.7587,-18.8147 -1.9615,-0.1074 m 2.3194,14.5415 -2.3194,-14.5415 m 7.471,25.6514 2.6071,-1.5235 m -111.3598,134.0735 -1.3243,-8.303 m 102.606,-149.8984 -2.7072,1.5821 m -78.1748,155.9182 -0.225,-1.4108 m 0,0 -2.2316,-2.1682 m -18.4633,5.7487 -1.6969,-10.6392 m 27.4043,4.1294 -5.0125,2.9293 m 62.8844,-124.2849 2.82,2.7398 m 9.4862,-5.5437 -9.4862,5.5437 m -2.82,-2.7398 9.4862,-5.5438 m -12.1147,-10.9367 2.6285,16.4805 m 4.1022,-20.4139 -6.7307,3.9334 m -59.1613,137.1666 0.4317,2.7068 m 90.4995,-130.6882 -2.8789,1.6824 m 9.7477,-1.5364 1.9614,0.1074 m -5.088,1.7198 3.1266,-1.8272 m 1.0823,6.786 1.9615,0.1074 m -0.521,2.521 1.0011,-1.6449 m -38.1597,-30.2157 1.4952,1.4527 m 16.0408,-4.7773 1.6863,0.5536 m 13.827,33.5629 2.6688,-1.5597 m 1.4405,2.6284 -2.607,1.5235 m 7.9649,3.6822 -5.3579,-5.2057 m 5.3579,5.2057 1.0011,-1.6448 m -157.9299,39.9035 -5.4385,-5.284 m 15.8402,-0.7948 -10.4017,6.0788 m 105.5262,-64.177 -94.4244,55.1817 m 105.7008,-59.2643 -7.3536,4.2974 m 40.6814,17.8694 -1.0823,-6.786 m 5.2737,16.1437 2.607,-1.5236 m 1.9847,-1.5007 -0.3454,1.7409 m -0.238,0.3955 -3.0734,1.7961 m -45.875,-42.917 0.5139,0.4993 m 47.7912,53.8456 -4.5192,2.641 m -44.0952,-58.9248 2.0434,1.9854 m 26.2319,47.5956 2.82,2.7399 m -3.9089,-9.5669 1.0889,6.827 m 6.5275,0.5732 -3.7075,2.1667 m -2.82,-2.7399 3.7075,-2.1667 m 6.4467,-29.3047 1.9614,0.1074 m -1.3422,3.7749 -0.6192,-3.8823 m 0,0 -2.1085,1.2322 m 2.5212,-1.9015 1.6863,0.5536 m -4.5814,0.9845 2.6182,-1.5301 M 425.4464,243.429 402.3854,221.0229 m 0.3909,-4.8553 21.682,21.0663 m -24.9623,-14.5224 2.8894,-1.6886 m 5.4428,-1.9949 4.4313,4.3055 m -7.2145,-21.7553 2.7832,17.4498 m -8.2217,-22.7339 5.4385,5.2841 m 14.1513,15.3878 2.4015,2.3334 m -9.3383,4.0341 -0.2761,-1.7312 m 14.3112,27.1467 -26.7986,-26.0375 m 20.5407,-10.6243 0.4862,0.4724 m -3.1148,-16.9528 2.6286,16.4804 m 0,0 -10.4017,6.0788 m 2.8199,2.7398 -2.8199,-2.7398 m 2.8199,2.7398 8.5977,-5.0245 m -14.0462,-14.1958 10.4017,-6.0787 m -7.7731,22.5592 -2.6286,-16.4805 m -10.7581,23.7693 0.968,0.2171 m -0.968,-0.2171 5.3579,5.2057 m 0,0 0.968,0.2172 m 11.7142,-48.4624 -2.7246,-2.6472 m 1.2428,61.0514 -0.968,-0.2172 m -0.4191,-1.1305 -0.0611,0.2544 m 6.8061,6.2991 -0.968,-0.2172 m -5.3579,-5.2058 5.3579,5.2058 m -5.8973,-6.4532 0.0592,0.3713 m 7.2798,6.7593 -0.8778,-0.2881 m 137.5591,-109.0816 0.0329,0.0319 m 6.6068,6.4192 0.6116,0.5943 m -13.8572,0.7691 -0.3454,1.7409 m -14.0752,-23.4807 3.2401,-1.8935 m -134.6968,109.8354 -1.0421,-0.3421 m 133.2887,-88.2269 -0.2134,-0.226 -0.2139,-0.2633 -0.208,-0.2926 -0.1958,-0.3131 -0.1775,-0.3239 -0.154,-0.3251 -0.1256,-0.3162 -0.0936,-0.2978 -0.0587,-0.2704 m 33.8394,32.8784 0.0219,0.2347 -0.0155,0.1919 -0.0524,0.1432 -0.0877,0.0902 -0.1203,0.0345 -0.1494,-0.0222 -0.1739,-0.0784 -0.193,-0.1321 -0.2063,-0.1818 m -14.9514,-35.1498 -0.1859,-0.1256 -0.168,-0.0753 -0.145,-0.0228 -0.1181,0.0303 -0.0878,0.0825 -0.0549,0.1324 m 11.9296,25.7198 -0.0343,-0.1735 -0.0496,-0.1864 m -0.7844,1.3184 0.2063,0.1818 0.193,0.1321 0.1738,0.0784 0.1494,0.0223 0.1204,-0.0345 0.0877,-0.0903 0.0524,-0.1432 0.0155,-0.1919 -0.0219,-0.2346 m -9.3461,-9.0807 0.0586,0.2703 0.0936,0.2978 0.1256,0.3163 0.154,0.325 0.1775,0.324 0.1958,0.313 0.208,0.2926 0.214,0.2634 0.2134,0.2259 m -3.1817,-9.2762 0.1831,0.1984 0.1818,0.2372 0.1712,0.2639 0.152,0.2775 0.1254,0.2771 0.0922,0.2628 0.0546,0.2353"
       sodipodi:nodetypes="cccccccccccccccccccccccccccccccccccccccccccccccccccccccccccccccccccccccccccccccccccccccccccccccccccccccccccccccccccccccccccccccccccccccccccccccccccccccccccccccccccccccccccccccccccccccccccccccccccccccccccccccccccccccccccccccccccccccccccccccccccccccccccccccccccccccccccccccccccccccccccccccccccccccccccccccccccccccccccccccccccccccccccccccccccccccccccccccccccccccccccccccccccccccccccccccccccccccccccccccccccccccccccccccccccccccccccccccccccccccccccccccccccccccccccccccccccccccccccccccccccccccccccccccccccccccccccccccccccccccccccccccccccccccccccccccccccccccccccccccccccccccccccccccccccccccccccccccccccccccccccccccccccccccccccccccccccccccccccccccccccccccccccccccccccccccccccccccccccccccccccccccccccccccccccccccccccccccccccccccccccccccccccccccccccccccccccccccccccccccccccccccccccccccccccccccccccccccccccccccccccccccccccccccccccccccccccc" /></g></svg>